<?xml version="1.0" encoding="utf-8"?>
<!-- Generator: Adobe Illustrator 27.5.0, SVG Export Plug-In . SVG Version: 6.00 Build 0)  -->
<svg version="1.1" xmlns="http://www.w3.org/2000/svg" xmlns:xlink="http://www.w3.org/1999/xlink" x="0px" y="0px"
	 viewBox="0 0 500 500" style="enable-background:new 0 0 500 500;" xml:space="preserve">
<g id="Background_Simple">
	<g>
		<path style="fill:#92E3A9;" d="M466.856,290.39c-14.722,39.433-44.804,82.112-87.135,94.748
			c-63.961,19.098-71.602,70.655-186.163,65.873c-17.862-0.744-34.371-3.255-49.538-7.264c-8.153-2.154-15.92-4.753-23.291-7.747
			C53.804,408.892,18.892,349.231,15.994,286.806c-3.825-82.102,53.46-121.236,90.69-144.15
			c37.231-22.914,82.102-111.701,194.76-107.885c17.176,0.589,34.313,2.937,50.919,7.438c37.907,10.259,76.441,32.951,98.834,66.124
			c1.681,2.492,3.285,5.043,4.82,7.641C485.984,166.816,486.93,236.631,466.856,290.39z"/>
		<path style="opacity:0.7;fill:#FFFFFF;" d="M466.856,290.39c-14.722,39.433-44.804,82.112-87.135,94.748
			c-63.961,19.098-71.602,70.655-186.163,65.873c-17.862-0.744-34.371-3.255-49.538-7.264c-8.153-2.154-15.92-4.753-23.291-7.747
			C53.804,408.892,18.892,349.231,15.994,286.806c-3.825-82.102,53.46-121.236,90.69-144.15
			c37.231-22.914,82.102-111.701,194.76-107.885c17.176,0.589,34.313,2.937,50.919,7.438c37.907,10.259,76.441,32.951,98.834,66.124
			c1.681,2.492,3.285,5.043,4.82,7.641C485.984,166.816,486.93,236.631,466.856,290.39z"/>
	</g>
</g>
<g id="Lines">
	<g>
		
			<line style="fill:none;stroke:#263238;stroke-linecap:round;stroke-linejoin:round;stroke-miterlimit:10;" x1="119.544" y1="214.024" x2="109" y2="203"/>
		
			<line style="fill:none;stroke:#263238;stroke-linecap:round;stroke-linejoin:round;stroke-miterlimit:10;" x1="172.994" y1="269.904" x2="123.049" y2="217.687"/>
		
			<line style="fill:none;stroke:#263238;stroke-linecap:round;stroke-linejoin:round;stroke-miterlimit:10;" x1="259.946" y1="360.811" x2="175.551" y2="272.578"/>
		
			<line style="fill:none;stroke:#263238;stroke-linecap:round;stroke-linejoin:round;stroke-miterlimit:10;" x1="180.848" y1="181.97" x2="159" y2="131"/>
		
			<line style="fill:none;stroke:#263238;stroke-linecap:round;stroke-linejoin:round;stroke-miterlimit:10;" x1="259.946" y1="366.496" x2="183.272" y2="187.623"/>
		
			<line style="fill:none;stroke:#263238;stroke-linecap:round;stroke-linejoin:round;stroke-miterlimit:10;" x1="391.535" y1="224.339" x2="399.476" y2="216.038"/>
		
			<line style="fill:none;stroke:#263238;stroke-linecap:round;stroke-linejoin:round;stroke-miterlimit:10;" x1="261" y1="360.811" x2="386.138" y2="229.982"/>
		
			<line style="fill:none;stroke:#263238;stroke-linecap:round;stroke-linejoin:round;stroke-miterlimit:10;" x1="328.691" y1="208.579" x2="361.946" y2="131"/>
		
			<line style="fill:none;stroke:#263238;stroke-linecap:round;stroke-linejoin:round;stroke-miterlimit:10;" x1="261" y1="366.496" x2="325.73" y2="215.489"/>
		
			<line style="fill:none;stroke:#263238;stroke-linecap:round;stroke-linejoin:round;stroke-miterlimit:10;" x1="259.946" y1="366.496" x2="259.946" y2="92"/>
	</g>
</g>
<g id="Graphics">
	<g>
		<g>
			
				<line style="fill:none;stroke:#263238;stroke-linecap:round;stroke-linejoin:round;stroke-miterlimit:10;" x1="50.406" y1="260.455" x2="40.581" y2="270.28"/>
			
				<line style="fill:none;stroke:#263238;stroke-linecap:round;stroke-linejoin:round;stroke-miterlimit:10;" x1="50.406" y1="270.28" x2="40.581" y2="260.455"/>
		</g>
		<g>
			
				<line style="fill:none;stroke:#263238;stroke-linecap:round;stroke-linejoin:round;stroke-miterlimit:10;" x1="125.329" y1="408.004" x2="115.504" y2="417.829"/>
			
				<line style="fill:none;stroke:#263238;stroke-linecap:round;stroke-linejoin:round;stroke-miterlimit:10;" x1="125.329" y1="417.829" x2="115.504" y2="408.004"/>
		</g>
		<g>
			
				<line style="fill:none;stroke:#263238;stroke-linecap:round;stroke-linejoin:round;stroke-miterlimit:10;" x1="454.663" y1="291.337" x2="444.837" y2="301.163"/>
			
				<line style="fill:none;stroke:#263238;stroke-linecap:round;stroke-linejoin:round;stroke-miterlimit:10;" x1="454.663" y1="301.163" x2="444.837" y2="291.337"/>
		</g>
		<g>
			
				<line style="fill:none;stroke:#263238;stroke-linecap:round;stroke-linejoin:round;stroke-miterlimit:10;" x1="384.663" y1="435.337" x2="374.837" y2="445.163"/>
			
				<line style="fill:none;stroke:#263238;stroke-linecap:round;stroke-linejoin:round;stroke-miterlimit:10;" x1="384.663" y1="445.163" x2="374.837" y2="435.337"/>
		</g>
		<g>
			
				<line style="fill:none;stroke:#263238;stroke-linecap:round;stroke-linejoin:round;stroke-miterlimit:10;" x1="322.663" y1="156.671" x2="312.837" y2="166.496"/>
			
				<line style="fill:none;stroke:#263238;stroke-linecap:round;stroke-linejoin:round;stroke-miterlimit:10;" x1="322.663" y1="166.496" x2="312.837" y2="156.671"/>
		</g>
		<g>
			
				<line style="fill:none;stroke:#263238;stroke-linecap:round;stroke-linejoin:round;stroke-miterlimit:10;" x1="92.271" y1="85.112" x2="82.446" y2="94.937"/>
			
				<line style="fill:none;stroke:#263238;stroke-linecap:round;stroke-linejoin:round;stroke-miterlimit:10;" x1="92.271" y1="94.937" x2="82.446" y2="85.112"/>
		</g>
		<g>
			
				<line style="fill:none;stroke:#263238;stroke-linecap:round;stroke-linejoin:round;stroke-miterlimit:10;" x1="454.663" y1="84.004" x2="444.837" y2="93.829"/>
			
				<line style="fill:none;stroke:#263238;stroke-linecap:round;stroke-linejoin:round;stroke-miterlimit:10;" x1="454.663" y1="93.829" x2="444.837" y2="84.004"/>
		</g>
		<path style="fill:none;stroke:#263238;stroke-linecap:round;stroke-linejoin:round;stroke-miterlimit:10;" d="M97,220
			c0-1.289-1.045-2.333-2.333-2.333c-1.289,0-2.333,1.045-2.333,2.333s1.045,2.333,2.333,2.333C95.955,222.333,97,221.289,97,220z"
			/>
		<path style="fill:none;stroke:#263238;stroke-linecap:round;stroke-linejoin:round;stroke-miterlimit:10;" d="M407.333,426.667
			c0-1.289-1.045-2.333-2.333-2.333s-2.333,1.045-2.333,2.333c0,1.289,1.045,2.333,2.333,2.333S407.333,427.955,407.333,426.667z"/>
		<path style="fill:none;stroke:#263238;stroke-linecap:round;stroke-linejoin:round;stroke-miterlimit:10;" d="M405,266.333
			c0-1.289-1.045-2.333-2.333-2.333c-1.289,0-2.333,1.045-2.333,2.333c0,1.289,1.045,2.333,2.333,2.333
			C403.955,268.667,405,267.622,405,266.333z"/>
		<path style="fill:none;stroke:#263238;stroke-linecap:round;stroke-linejoin:round;stroke-miterlimit:10;" d="M374,172.667
			c0-1.289-1.045-2.333-2.333-2.333c-1.289,0-2.333,1.045-2.333,2.333c0,1.289,1.045,2.333,2.333,2.333
			C372.955,175,374,173.955,374,172.667z"/>
		<path style="fill:none;stroke:#263238;stroke-linecap:round;stroke-linejoin:round;stroke-miterlimit:10;" d="M216.667,90.667
			c0-1.289-1.045-2.333-2.333-2.333c-1.289,0-2.333,1.045-2.333,2.333c0,1.289,1.045,2.333,2.333,2.333
			C215.622,93,216.667,91.955,216.667,90.667z"/>
		<path style="fill:none;stroke:#263238;stroke-linecap:round;stroke-linejoin:round;stroke-miterlimit:10;" d="M341.337,49.226
			c0-1.289-1.045-2.333-2.333-2.333c-1.289,0-2.333,1.045-2.333,2.333s1.045,2.333,2.333,2.333
			C340.292,51.559,341.337,50.515,341.337,49.226z"/>
		<path style="fill:none;stroke:#263238;stroke-linecap:round;stroke-linejoin:round;stroke-miterlimit:10;" d="M42.667,390
			c0-1.289-1.045-2.333-2.333-2.333c-1.289,0-2.333,1.045-2.333,2.333s1.045,2.333,2.333,2.333
			C41.622,392.333,42.667,391.289,42.667,390z"/>
	</g>
</g>
<g id="Sport">
	<g>
		<g>
			<path style="fill:#FFFFFF;stroke:#263238;stroke-linecap:round;stroke-linejoin:round;stroke-miterlimit:10;" d="
				M434.953,169.402c-3.214-2.69-5.208-6.41-6.014-10.637c0.011,4.151-0.763,11.347-5.467,17.707l6.551,5.485
				c5.457-5.775,12.443-7.795,16.524-8.505C442.22,173.413,438.183,172.106,434.953,169.402z"/>
			<path style="fill:#FFFFFF;stroke:#263238;stroke-linecap:round;stroke-linejoin:round;stroke-miterlimit:10;" d="M472.653,124.37
				c-9.3-7.786-25.279-4.017-35.689,8.418c-10.41,12.435-11.31,28.827-2.01,36.613c9.3,7.786,25.279,4.017,35.689-8.418
				C481.053,148.548,481.953,132.156,472.653,124.37z M437.599,166.242c-7.995-6.693-7.221-20.785,1.728-31.475
				c8.95-10.69,22.686-13.93,30.681-7.237c7.995,6.693,7.221,20.785-1.728,31.475C459.33,169.695,445.594,172.935,437.599,166.242z"
				/>
			<path style="fill:#92E3A9;stroke:#263238;stroke-linecap:round;stroke-linejoin:round;stroke-miterlimit:10;" d="
				M404.436,207.573l-1.692-1.416c-1.518-1.271-1.719-3.532-0.448-5.051l22.325-26.667c1.271-1.518,3.532-1.719,5.051-0.448
				l1.692,1.416c1.518,1.271,1.719,3.532,0.448,5.051l-22.325,26.667C408.215,208.643,405.954,208.844,404.436,207.573z"/>
			<path style="fill:#263238;" d="M455.233,126.053l-3.007-0.577c-0.59,0.215-1.177,0.455-1.763,0.718l0.425,0.081l-0.6,3.131
				l-3.132-0.601l0.186-0.968c-0.404,0.245-0.805,0.501-1.203,0.769l-0.001,0.005l-0.005-0.001c-0.396,0.266-0.789,0.542-1.177,0.83
				l0.986,0.189l-0.6,3.131l-3.132-0.601l0.1-0.52c-0.464,0.428-0.921,0.871-1.367,1.334l0.054,0.01l-0.601,3.131l-1.867-0.358
				c-0.237,0.305-0.466,0.614-0.69,0.924l2.361,0.453l-0.601,3.131l-3.132-0.601l0.256-1.333c-0.583,0.917-1.116,1.847-1.59,2.788
				l-0.48,2.499l-0.595-0.114c-0.131,0.328-0.258,0.656-0.377,0.984l0.777,0.149l-0.601,3.131l-1.094-0.21
				c-0.08,0.339-0.152,0.677-0.219,1.014l1.117,0.214l-0.6,3.131l-0.934-0.179c-0.023,0.351-0.038,0.7-0.046,1.048l0.784,0.15
				l-0.601,3.131l-0.006-0.001c0.123,0.907,0.31,1.788,0.555,2.641l0.273-1.426l3.132,0.601l-0.6,3.131l-2.139-0.41
				c0.166,0.394,0.341,0.783,0.537,1.159l1.407,0.27l-0.295,1.537c0.265,0.371,0.549,0.728,0.849,1.074l0.463-2.416l3.132,0.601
				l-0.6,3.131l-2.146-0.411c0.247,0.239,0.503,0.472,0.769,0.696c0.286,0.24,0.582,0.463,0.883,0.677l0.298,0.057l-0.025,0.128
				c0.308,0.209,0.622,0.405,0.942,0.589l0.1-0.522l3.132,0.601l-0.234,1.221c0.33,0.102,0.665,0.191,1.003,0.271l0.249-1.297
				l3.132,0.601l-0.217,1.131c0.348,0.016,0.699,0.022,1.052,0.019l0.183-0.955l3.132,0.601l-0.01,0.051
				c0.867-0.149,1.74-0.351,2.613-0.608l-1.39-0.267l0.6-3.131l3.132,0.601l-0.412,2.146c0.383-0.147,0.765-0.305,1.146-0.472
				l0.284-1.479l1.954,0.375c0.457-0.251,0.912-0.516,1.363-0.795l-3.122-0.599l0.6-3.131l3.132,0.601l-0.599,3.121
				c0.405-0.251,0.807-0.511,1.206-0.785l0.411-2.141l1.92,0.368c0.335-0.28,0.667-0.569,0.995-0.865l-2.72-0.522l0.6-3.131
				l3.131,0.601l-0.495,2.579c0.444-0.42,0.879-0.859,1.307-1.311l0.206-1.073l0.658,0.126c0.18-0.205,0.362-0.408,0.538-0.619
				c0.08-0.096,0.154-0.193,0.233-0.289l-1.234-0.237l0.6-3.131l2.73,0.524c0.205-0.312,0.404-0.626,0.596-0.942l-3.131-0.6
				l0.601-3.131l3.132,0.601l-0.6,3.13c0.783-1.283,1.455-2.592,2.027-3.913l-0.213-0.041l0.6-3.131l0.735,0.141
				c0.103-0.334,0.2-0.667,0.289-1.001l-0.829-0.159l0.6-3.131l0.873,0.167c0.049-0.345,0.092-0.689,0.126-1.032l-0.804-0.154
				l0.6-3.131l0.3,0.058c-0.015-0.36-0.04-0.716-0.073-1.07l-0.032-0.006l0.02-0.102c-0.098-0.989-0.264-1.952-0.503-2.882
				l-0.535,2.789l-3.132-0.601l0.601-3.131l2.961,0.568c-0.107-0.381-0.225-0.756-0.356-1.124l-2.41-0.462l0.6-3.127
				c-0.295-0.432-0.617-0.845-0.959-1.244l-2.995-0.574l0.352-1.833c-0.306-0.215-0.62-0.416-0.939-0.606l-0.43,2.243l-3.132-0.601
				l0.574-2.992c-0.329-0.107-0.662-0.204-1-0.289l-0.592,3.086l-3.132-0.601l0.568-2.962c-0.347-0.02-0.697-0.03-1.049-0.031
				l-0.537,2.798l-3.131-0.601l0.37-1.929c-0.364,0.059-0.729,0.127-1.095,0.205L455.233,126.053z M446.96,129.825l3.132,0.601
				l-0.6,3.131l-3.132-0.601L446.96,129.825z M452.272,146.996l0.601-3.131l3.131,0.601l-0.6,3.131L452.272,146.996z
				 M455.208,148.616l-0.601,3.131l-3.132-0.601l0.601-3.131L455.208,148.616z M451.254,146.801l-3.132-0.601l0.6-3.131l3.132,0.601
				L451.254,146.801z M453.067,142.847l0.601-3.131l3.131,0.601l-0.6,3.131L453.067,142.847z M452.05,142.652l-3.132-0.601
				l0.6-3.131l3.132,0.601L452.05,142.652z M447.104,146.005l-3.132-0.601l0.6-3.131l3.132,0.601L447.104,146.005z M446.909,147.024
				l-0.6,3.131l-3.132-0.601l0.6-3.131L446.909,147.024z M447.927,147.219l3.132,0.601l-0.601,3.131l-3.132-0.601L447.927,147.219z
				 M450.262,151.97l-0.6,3.131l-3.132-0.601l0.6-3.131L450.262,151.97z M451.28,152.165l3.132,0.601l-0.6,3.131l-3.132-0.601
				L451.28,152.165z M453.616,156.915l-0.601,3.131l-3.132-0.601l0.601-3.131L453.616,156.915z M455.43,152.961l3.132,0.601
				l-0.6,3.131l-3.132-0.601L455.43,152.961z M455.625,151.942l0.601-3.131l3.132,0.601l-0.601,3.131L455.625,151.942z
				 M461.171,145.458l3.132,0.601l-0.6,3.131l-3.132-0.601L461.171,145.458z M459.553,148.393l-3.132-0.601l0.6-3.131l3.132,0.601
				L459.553,148.393z M457.217,143.643l0.6-3.131l3.132,0.601l-0.6,3.131L457.217,143.643z M458.013,139.493l0.601-3.131
				l3.132,0.601l-0.6,3.131L458.013,139.493z M456.995,139.298l-3.131-0.601l0.6-3.131l3.131,0.601L456.995,139.298z
				 M452.846,138.502l-3.132-0.601l0.6-3.131l3.132,0.601L452.846,138.502z M448.696,137.706l-3.132-0.601l0.6-3.131l3.132,0.601
				L448.696,137.706z M448.5,138.725l-0.6,3.131l-3.132-0.601l0.6-3.131L448.5,138.725z M442.954,145.209l-3.132-0.601l0.6-3.131
				l3.132,0.601L442.954,145.209z M442.759,146.228l-0.6,3.131l-3.132-0.601l0.6-3.131L442.759,146.228z M441.963,150.378
				l-0.6,3.131l-3.132-0.601l0.6-3.131L441.963,150.378z M442.981,150.573l3.132,0.601l-0.6,3.131l-3.132-0.601L442.981,150.573z
				 M445.317,155.323l-0.601,3.131l-3.132-0.601l0.601-3.131L445.317,155.323z M446.335,155.519l3.132,0.601l-0.601,3.131
				l-3.132-0.601L446.335,155.519z M448.671,160.269l-0.6,3.131l-3.132-0.601l0.6-3.131L448.671,160.269z M449.688,160.464
				l3.132,0.601l-0.6,3.131l-3.132-0.601L449.688,160.464z M454.634,157.11l3.132,0.601l-0.601,3.131l-3.132-0.601L454.634,157.11z
				 M459.58,153.757l3.132,0.601l-0.6,3.131l-3.132-0.601L459.58,153.757z M459.775,152.738l0.601-3.131l3.132,0.601l-0.6,3.131
				L459.775,152.738z M465.321,146.253l3.132,0.601l-0.6,3.131l-3.132-0.601L465.321,146.253z M465.517,145.235l0.6-3.131
				l3.132,0.601l-0.601,3.131L465.517,145.235z M464.499,145.039l-3.132-0.601l0.601-3.131l3.132,0.601L464.499,145.039z
				 M462.162,140.289l0.601-3.131l3.132,0.601l-0.6,3.131L462.162,140.289z M462.958,136.139l0.601-3.131l3.132,0.601l-0.601,3.131
				L462.958,136.139z M461.94,135.944l-3.132-0.601l0.6-3.131l3.132,0.601L461.94,135.944z M457.791,135.148l-3.131-0.601
				l0.601-3.131l3.131,0.601L457.791,135.148z M453.641,134.352l-3.132-0.601l0.6-3.131l3.132,0.601L453.641,134.352z
				 M442.015,133.179l3.131,0.601l-0.6,3.131l-3.132-0.601L442.015,133.179z M441.219,137.328l3.132,0.601l-0.6,3.131l-3.132-0.601
				L441.219,137.328z M436.273,140.682l3.132,0.601l-0.6,3.131l-3.132-0.601L436.273,140.682z M435.477,144.831l3.132,0.601
				l-0.601,3.131l-3.132-0.601L435.477,144.831z M434.681,148.981l3.132,0.601l-0.6,3.131l-3.132-0.601L434.681,148.981z
				 M433.285,156.262l0.601-3.132l3.132,0.601l-0.601,3.131L433.285,156.262z M438.035,153.927l3.132,0.601l-0.601,3.131
				l-3.132-0.601L438.035,153.927z M436.639,161.208l0.6-3.131l3.132,0.601l-0.6,3.131L436.639,161.208z M441.389,158.873
				l3.132,0.601l-0.6,3.131l-3.132-0.601L441.389,158.873z M439.993,166.153l0.6-3.131l3.132,0.601l-0.6,3.131L439.993,166.153z
				 M444.143,166.949l0.601-3.131l3.132,0.601l-0.601,3.131L444.143,166.949z M451.424,168.345l-3.132-0.601l0.6-3.131l3.132,0.601
				L451.424,168.345z M456.369,164.992l-3.132-0.601l0.6-3.131l3.132,0.601L456.369,164.992z M461.315,161.638l-3.132-0.601
				l0.6-3.131l3.132,0.601L461.315,161.638z M466.26,158.284l-3.131-0.601l0.6-3.131l3.131,0.601L466.26,158.284z M467.056,154.135
				l-3.132-0.601l0.601-3.131l3.132,0.6L467.056,154.135z M472.002,150.781l-3.132-0.601l0.6-3.131l3.132,0.601L472.002,150.781z
				 M472.798,146.631l-3.132-0.601l0.601-3.131l3.132,0.601L472.798,146.631z M474.194,139.351l-0.6,3.131l-3.132-0.601l0.6-3.131
				L474.194,139.351z M469.444,141.686l-3.132-0.601l0.6-3.131l3.132,0.601L469.444,141.686z M470.24,137.536l-3.132-0.601
				l0.601-3.131l3.132,0.601L470.24,137.536z M471.636,130.255l-0.6,3.131l-3.132-0.601l0.601-3.131L471.636,130.255z
				 M467.487,129.459l-0.6,3.131l-3.132-0.601l0.6-3.131L467.487,129.459z M463.337,128.663l-0.6,3.131l-3.132-0.601l0.6-3.131
				L463.337,128.663z M459.187,127.868l-0.6,3.131l-3.131-0.601l0.6-3.131L459.187,127.868z M454.437,130.203l-3.132-0.601
				l0.6-3.131l3.132,0.601L454.437,130.203z"/>
		</g>
		<g>
			<path style="fill:#FFFFFF;stroke:#263238;stroke-linecap:round;stroke-linejoin:round;stroke-miterlimit:10;" d="
				M452.437,192.845c0,2.691-1.219,5.1-3.122,6.703c-1.528,1.275-3.487,2.044-5.625,2.044c-2.147,0-4.106-0.769-5.625-2.044
				c-1.913-1.603-3.131-4.012-3.131-6.703c0-2.691,1.219-5.1,3.131-6.712c1.519-1.275,3.478-2.044,5.625-2.044
				c2.137,0,4.097,0.769,5.625,2.044C451.218,187.745,452.437,190.154,452.437,192.845z"/>
			<path style="fill:#FFFFFF;stroke:#263238;stroke-linecap:round;stroke-linejoin:round;stroke-miterlimit:10;" d="
				M441.187,192.845c0,2.691-1.219,5.1-3.122,6.703c-1.913-1.603-3.131-4.012-3.131-6.703c0-2.691,1.219-5.1,3.131-6.712
				C439.968,187.745,441.187,190.154,441.187,192.845z"/>
			<path style="fill:#FFFFFF;stroke:#263238;stroke-linecap:round;stroke-linejoin:round;stroke-miterlimit:10;" d="
				M452.437,192.845c0,2.691-1.219,5.1-3.122,6.703c-1.913-1.603-3.131-4.012-3.131-6.703c0-2.691,1.219-5.1,3.131-6.712
				C451.218,187.745,452.437,190.154,452.437,192.845z"/>
		</g>
	</g>
</g>
<g id="Love">
	<g>
		
			<line style="fill:none;stroke:#263238;stroke-linecap:round;stroke-linejoin:round;stroke-miterlimit:10;" x1="380.986" y1="93.557" x2="413.921" y2="74.121"/>
		<path style="fill:#92E3A9;stroke:#263238;stroke-linecap:round;stroke-linejoin:round;stroke-miterlimit:10;" d="M402.244,77.229
			c-5.754-5.764-15.1-5.764-20.865,0l-1.886,1.886l-1.886-1.886c-2.887-2.877-6.66-4.32-10.432-4.32s-7.545,1.444-10.432,4.32
			c-5.753,5.754-5.753,15.101,0,20.865l1.886,1.886l20.865,20.865l20.865-20.865l1.886-1.886c2.887-2.877,4.32-6.66,4.32-10.432
			C406.564,83.878,405.131,80.105,402.244,77.229z"/>
		<path style="fill:none;stroke:#263238;stroke-linecap:round;stroke-linejoin:round;stroke-miterlimit:10;" d="M357.341,88.438
			c-0.133,1.838,0.151,3.701,0.852,5.434"/>
		<path style="fill:none;stroke:#263238;stroke-linecap:round;stroke-linejoin:round;stroke-miterlimit:10;" d="M369.396,77.231
			c-3.092,0-6.184,1.183-8.551,3.541c-1.011,1.011-1.805,2.157-2.382,3.38"/>
		
			<line style="fill:none;stroke:#263238;stroke-linecap:round;stroke-linejoin:round;stroke-miterlimit:10;" x1="340.751" y1="118.161" x2="373.685" y2="98.725"/>
		<polygon style="fill:#FFFFFF;stroke:#263238;stroke-linecap:round;stroke-linejoin:round;stroke-miterlimit:10;" points="
			351.448,111.665 346.251,107.741 337.856,112.661 344.514,115.846 		"/>
		<polygon style="fill:#FFFFFF;stroke:#263238;stroke-linecap:round;stroke-linejoin:round;stroke-miterlimit:10;" points="
			351.448,111.665 352.926,117.235 345.857,123.239 344.799,115.935 		"/>
		<polyline style="fill:none;stroke:#263238;stroke-linecap:round;stroke-linejoin:round;stroke-miterlimit:10;" points="
			405.591,73.584 415.143,73.005 410.512,81.978 		"/>
	</g>
</g>
<g id="Money">
	<g>
		<g>
			
				<ellipse transform="matrix(0.9754 -0.2205 0.2205 0.9754 -5.8151 56.3298)" style="fill:#FFFFFF;stroke:#263238;stroke-linecap:round;stroke-linejoin:round;stroke-miterlimit:10;" cx="249.414" cy="54.213" rx="26.985" ry="26.985"/>
			
				<ellipse transform="matrix(0.9879 -0.1551 0.1551 0.9879 -5.3909 39.3526)" style="fill:#FFFFFF;stroke:#263238;stroke-linecap:round;stroke-linejoin:round;stroke-miterlimit:10;" cx="249.414" cy="54.213" rx="20.615" ry="20.615"/>
			<g>
				<path style="fill:#92E3A9;stroke:#263238;stroke-linecap:round;stroke-linejoin:round;stroke-miterlimit:10;" d="
					M247.867,42.419v-1.788h3.095v1.788c2.682,0.55,4.057,2.613,4.057,5.879v0.756h-3.576v-0.997c0-1.719-0.688-2.372-1.891-2.372
					c-1.204,0-1.891,0.653-1.891,2.372c0,4.951,7.392,5.192,7.392,12.068c0,3.267-1.409,5.364-4.09,5.914v1.754h-3.095V66.04
					c-2.716-0.55-4.092-2.647-4.092-5.914v-1.65h3.576v1.891c0,1.719,0.756,2.338,1.959,2.338c1.203,0,1.961-0.619,1.961-2.338
					c0-4.951-7.393-5.191-7.393-12.068C243.878,45.067,245.22,43.004,247.867,42.419z"/>
			</g>
		</g>
		<g>
			<g>
				
					<rect x="264.01" y="75.623" style="fill:#FFFFFF;stroke:#263238;stroke-linecap:round;stroke-linejoin:round;stroke-miterlimit:10;" width="43.4" height="5.574"/>
				
					<line style="fill:none;stroke:#263238;stroke-linecap:round;stroke-linejoin:round;stroke-miterlimit:10;" x1="267.057" y1="76.073" x2="267.057" y2="80.533"/>
				
					<line style="fill:none;stroke:#263238;stroke-linecap:round;stroke-linejoin:round;stroke-miterlimit:10;" x1="271.719" y1="76.073" x2="271.719" y2="78.708"/>
				
					<line style="fill:none;stroke:#263238;stroke-linecap:round;stroke-linejoin:round;stroke-miterlimit:10;" x1="276.787" y1="78.506" x2="276.787" y2="80.938"/>
				
					<line style="fill:none;stroke:#263238;stroke-linecap:round;stroke-linejoin:round;stroke-miterlimit:10;" x1="297.465" y1="75.667" x2="297.465" y2="77.492"/>
				
					<line style="fill:none;stroke:#263238;stroke-linecap:round;stroke-linejoin:round;stroke-miterlimit:10;" x1="303.142" y1="80.938" x2="303.142" y2="79.316"/>
			</g>
			<g>
				
					<rect x="264.01" y="69.947" style="fill:#FFFFFF;stroke:#263238;stroke-linecap:round;stroke-linejoin:round;stroke-miterlimit:10;" width="43.4" height="5.574"/>
				
					<line style="fill:none;stroke:#263238;stroke-linecap:round;stroke-linejoin:round;stroke-miterlimit:10;" x1="267.057" y1="70.397" x2="267.057" y2="74.856"/>
				
					<line style="fill:none;stroke:#263238;stroke-linecap:round;stroke-linejoin:round;stroke-miterlimit:10;" x1="271.719" y1="70.397" x2="271.719" y2="73.032"/>
				
					<line style="fill:none;stroke:#263238;stroke-linecap:round;stroke-linejoin:round;stroke-miterlimit:10;" x1="276.787" y1="72.829" x2="276.787" y2="75.262"/>
				
					<line style="fill:none;stroke:#263238;stroke-linecap:round;stroke-linejoin:round;stroke-miterlimit:10;" x1="297.465" y1="69.991" x2="297.465" y2="71.816"/>
				
					<line style="fill:none;stroke:#263238;stroke-linecap:round;stroke-linejoin:round;stroke-miterlimit:10;" x1="303.142" y1="75.262" x2="303.142" y2="73.64"/>
			</g>
			<g>
				
					<rect x="264.01" y="64.27" style="fill:#FFFFFF;stroke:#263238;stroke-linecap:round;stroke-linejoin:round;stroke-miterlimit:10;" width="43.4" height="5.574"/>
				
					<line style="fill:none;stroke:#263238;stroke-linecap:round;stroke-linejoin:round;stroke-miterlimit:10;" x1="267.057" y1="64.72" x2="267.057" y2="69.18"/>
				
					<line style="fill:none;stroke:#263238;stroke-linecap:round;stroke-linejoin:round;stroke-miterlimit:10;" x1="271.719" y1="64.72" x2="271.719" y2="67.356"/>
				
					<line style="fill:none;stroke:#263238;stroke-linecap:round;stroke-linejoin:round;stroke-miterlimit:10;" x1="276.787" y1="67.153" x2="276.787" y2="69.586"/>
				
					<line style="fill:none;stroke:#263238;stroke-linecap:round;stroke-linejoin:round;stroke-miterlimit:10;" x1="297.465" y1="64.315" x2="297.465" y2="66.139"/>
				
					<line style="fill:none;stroke:#263238;stroke-linecap:round;stroke-linejoin:round;stroke-miterlimit:10;" x1="303.142" y1="69.586" x2="303.142" y2="67.964"/>
			</g>
			<g>
				
					<rect x="264.01" y="58.594" style="fill:#FFFFFF;stroke:#263238;stroke-linecap:round;stroke-linejoin:round;stroke-miterlimit:10;" width="43.4" height="5.574"/>
				
					<line style="fill:none;stroke:#263238;stroke-linecap:round;stroke-linejoin:round;stroke-miterlimit:10;" x1="267.057" y1="59.044" x2="267.057" y2="63.504"/>
				
					<line style="fill:none;stroke:#263238;stroke-linecap:round;stroke-linejoin:round;stroke-miterlimit:10;" x1="271.719" y1="59.044" x2="271.719" y2="61.679"/>
				
					<line style="fill:none;stroke:#263238;stroke-linecap:round;stroke-linejoin:round;stroke-miterlimit:10;" x1="276.787" y1="61.477" x2="276.787" y2="63.909"/>
				
					<line style="fill:none;stroke:#263238;stroke-linecap:round;stroke-linejoin:round;stroke-miterlimit:10;" x1="297.465" y1="58.639" x2="297.465" y2="60.463"/>
				
					<line style="fill:none;stroke:#263238;stroke-linecap:round;stroke-linejoin:round;stroke-miterlimit:10;" x1="303.142" y1="63.909" x2="303.142" y2="62.288"/>
			</g>
			<g>
				
					<rect x="264.01" y="52.918" style="fill:#FFFFFF;stroke:#263238;stroke-linecap:round;stroke-linejoin:round;stroke-miterlimit:10;" width="43.4" height="5.574"/>
				
					<line style="fill:none;stroke:#263238;stroke-linecap:round;stroke-linejoin:round;stroke-miterlimit:10;" x1="267.057" y1="53.368" x2="267.057" y2="57.828"/>
				
					<line style="fill:none;stroke:#263238;stroke-linecap:round;stroke-linejoin:round;stroke-miterlimit:10;" x1="271.719" y1="53.368" x2="271.719" y2="56.003"/>
				
					<line style="fill:none;stroke:#263238;stroke-linecap:round;stroke-linejoin:round;stroke-miterlimit:10;" x1="276.787" y1="55.8" x2="276.787" y2="58.233"/>
				
					<line style="fill:none;stroke:#263238;stroke-linecap:round;stroke-linejoin:round;stroke-miterlimit:10;" x1="297.465" y1="52.962" x2="297.465" y2="54.787"/>
				
					<line style="fill:none;stroke:#263238;stroke-linecap:round;stroke-linejoin:round;stroke-miterlimit:10;" x1="303.142" y1="58.233" x2="303.142" y2="56.611"/>
			</g>
			<g>
				
					<rect x="264.01" y="47.242" style="fill:#FFFFFF;stroke:#263238;stroke-linecap:round;stroke-linejoin:round;stroke-miterlimit:10;" width="43.4" height="5.574"/>
				
					<line style="fill:none;stroke:#263238;stroke-linecap:round;stroke-linejoin:round;stroke-miterlimit:10;" x1="267.057" y1="47.691" x2="267.057" y2="52.151"/>
				
					<line style="fill:none;stroke:#263238;stroke-linecap:round;stroke-linejoin:round;stroke-miterlimit:10;" x1="271.719" y1="47.691" x2="271.719" y2="50.327"/>
				
					<line style="fill:none;stroke:#263238;stroke-linecap:round;stroke-linejoin:round;stroke-miterlimit:10;" x1="276.787" y1="50.124" x2="276.787" y2="52.557"/>
				
					<line style="fill:none;stroke:#263238;stroke-linecap:round;stroke-linejoin:round;stroke-miterlimit:10;" x1="297.465" y1="47.286" x2="297.465" y2="49.111"/>
				
					<line style="fill:none;stroke:#263238;stroke-linecap:round;stroke-linejoin:round;stroke-miterlimit:10;" x1="303.142" y1="52.557" x2="303.142" y2="50.935"/>
			</g>
		</g>
	</g>
</g>
<g id="Food">
	<g>
		<g>
			<path style="fill:#FFFFFF;stroke:#263238;stroke-linecap:round;stroke-linejoin:round;stroke-miterlimit:10;" d="
				M133.728,117.145h-19.978c-3.258,0-5.9-2.641-5.9-5.9V73.432c0-2.27,0.69-4.487,1.978-6.357l7.682-11.149h12.457l7.682,11.149
				c1.288,1.87,1.978,4.086,1.978,6.357v37.813C139.628,114.503,136.987,117.145,133.728,117.145z"/>
			<path style="fill:#FFFFFF;stroke:#263238;stroke-linecap:round;stroke-linejoin:round;stroke-miterlimit:10;" d="M129.722,51.721
				h-11.965c-0.954,0-1.728,0.774-1.728,1.728v1.216c0,0.955,0.774,1.728,1.728,1.728h11.965c0.954,0,1.728-0.774,1.728-1.728
				v-1.216C131.45,52.495,130.676,51.721,129.722,51.721z"/>
			
				<rect x="118.949" y="42.515" style="fill:#92E3A9;stroke:#263238;stroke-linecap:round;stroke-linejoin:round;stroke-miterlimit:10;" width="10.281" height="8.879"/>
			<g>
				
					<line style="fill:none;stroke:#263238;stroke-linecap:round;stroke-linejoin:round;stroke-miterlimit:10;" x1="108.669" y1="83.031" x2="121.753" y2="83.031"/>
				
					<line style="fill:none;stroke:#263238;stroke-linecap:round;stroke-linejoin:round;stroke-miterlimit:10;" x1="124.557" y1="83.031" x2="131.1" y2="83.031"/>
			</g>
			<g>
				
					<line style="fill:none;stroke:#263238;stroke-linecap:round;stroke-linejoin:round;stroke-miterlimit:10;" x1="108.669" y1="103.125" x2="121.753" y2="103.125"/>
				
					<line style="fill:none;stroke:#263238;stroke-linecap:round;stroke-linejoin:round;stroke-miterlimit:10;" x1="124.557" y1="103.125" x2="131.1" y2="103.125"/>
			</g>
			<g>
				
					<line style="fill:none;stroke:#263238;stroke-linecap:round;stroke-linejoin:round;stroke-miterlimit:10;" x1="137.642" y1="92.844" x2="125.102" y2="92.844"/>
				
					<line style="fill:none;stroke:#263238;stroke-linecap:round;stroke-linejoin:round;stroke-miterlimit:10;" x1="122.415" y1="92.844" x2="116.146" y2="92.844"/>
			</g>
		</g>
		<g>
			<g>
				<path style="fill:#92E3A9;stroke:#263238;stroke-linecap:round;stroke-linejoin:round;stroke-miterlimit:10;" d="
					M153.611,82.536c0,0-12.363-6.623-18.986,3.533c-6.113,9.375,0.314,30.099,12.805,31.348c4.415,0.442,7.064-1.325,7.064-1.325
					s4.415,3.532,11.921,0c7.506-3.532,10.155-13.062,10.155-21.635C176.57,82.536,162,76.354,153.611,82.536z"/>
				<path style="fill:none;stroke:#263238;stroke-linecap:round;stroke-linejoin:round;stroke-miterlimit:10;" d="M137.419,97.062
					c0.078,1.466,0.322,2.968,0.717,4.437"/>
				<path style="fill:none;stroke:#263238;stroke-linecap:round;stroke-linejoin:round;stroke-miterlimit:10;" d="M145.489,84.803
					c-2.243,0.359-4.535,1.517-6.298,4.22c-0.686,1.052-1.167,2.29-1.458,3.641"/>
				<path style="fill:#263238;stroke:#263238;stroke-linecap:round;stroke-linejoin:round;stroke-miterlimit:10;" d="M153.169,83.86
					c0,0,1.766-1.766,0-6.181c-1.766-4.415-2.649-5.74-2.649-5.74l3.004-0.591C153.524,71.348,158.909,79.445,153.169,83.86z"/>
			</g>
			<path style="fill:#263238;stroke:#263238;stroke-linecap:round;stroke-linejoin:round;stroke-miterlimit:10;" d="M155.393,75.554
				c0,0,1.869-4.673,5.608-7.01c3.738-2.336,12.15,0.935,12.15,0.935s-6.075,4.206-8.879,6.075
				C161.468,77.423,155.393,75.554,155.393,75.554z"/>
		</g>
	</g>
	<g>
		
			<circle style="fill:#FFFFFF;stroke:#263238;stroke-linecap:round;stroke-linejoin:round;stroke-miterlimit:10;" cx="168.473" cy="112.226" r="8.854"/>
		
			<polyline style="fill:none;stroke:#263238;stroke-width:3;stroke-linecap:round;stroke-linejoin:round;stroke-miterlimit:10;" points="
			165.349,108.581 168.473,113.226 180.973,102.331 		"/>
	</g>
</g>
<g id="Books">
	<g>
		<g>
			<path style="fill:#92E3A9;stroke:#263238;stroke-linecap:round;stroke-linejoin:round;stroke-miterlimit:10;" d="M96.49,174.054
				H43.451c-2.876,0-5.207,2.331-5.207,5.207v6.175c0,2.876,2.331,5.207,5.207,5.207H96.49V174.054z"/>
			<path style="fill:#FFFFFF;stroke:#263238;stroke-linecap:round;stroke-linejoin:round;stroke-miterlimit:10;" d="M73.818,187.694
				c-2.952,0-5.345-2.393-5.345-5.345v0c0-2.952,2.393-5.345,5.345-5.345h31.888v-2.949H71.607c-3.766,0-6.82,3.053-6.82,6.82v2.949
				c0,3.767,3.053,6.82,6.82,6.82h34.099v-2.949H73.818z"/>
			<path style="fill:#FFFFFF;stroke:#263238;stroke-linecap:round;stroke-linejoin:round;stroke-miterlimit:10;" d="
				M104.037,177.003H72.554c-2.254,0-4.081,1.827-4.081,4.081v2.529c0,2.254,1.827,4.081,4.081,4.081h31.483V177.003z"/>
			
				<line style="fill:none;stroke:#263238;stroke-linecap:round;stroke-linejoin:round;stroke-miterlimit:10;" x1="69.211" y1="180.321" x2="78.795" y2="180.321"/>
			
				<line style="fill:none;stroke:#263238;stroke-linecap:round;stroke-linejoin:round;stroke-miterlimit:10;" x1="69.211" y1="183.27" x2="88.38" y2="183.27"/>
		</g>
		<g>
			<path style="fill:#FFFFFF;stroke:#263238;stroke-linecap:round;stroke-linejoin:round;stroke-miterlimit:10;" d="M93.979,157.027
				H40.941c-2.876,0-5.207,2.331-5.207,5.207v6.175c0,2.876,2.331,5.207,5.207,5.207h53.039V157.027z"/>
			<path style="fill:#FFFFFF;stroke:#263238;stroke-linecap:round;stroke-linejoin:round;stroke-miterlimit:10;" d="M71.308,170.667
				c-2.952,0-5.345-2.393-5.345-5.345v0c0-2.952,2.393-5.345,5.345-5.345h31.888v-2.949H69.096c-3.767,0-6.82,3.053-6.82,6.82v2.949
				c0,3.766,3.053,6.82,6.82,6.82h34.099v-2.949H71.308z"/>
			<path style="fill:#FFFFFF;stroke:#263238;stroke-linecap:round;stroke-linejoin:round;stroke-miterlimit:10;" d="
				M101.527,159.976H70.044c-2.254,0-4.081,1.827-4.081,4.081v2.529c0,2.254,1.827,4.081,4.081,4.081h31.483V159.976z"/>
			
				<line style="fill:none;stroke:#263238;stroke-linecap:round;stroke-linejoin:round;stroke-miterlimit:10;" x1="66.7" y1="163.294" x2="76.285" y2="163.294"/>
			
				<line style="fill:none;stroke:#263238;stroke-linecap:round;stroke-linejoin:round;stroke-miterlimit:10;" x1="66.7" y1="166.243" x2="85.869" y2="166.243"/>
		</g>
		<g>
			<path style="fill:#92E3A9;stroke:#263238;stroke-linecap:round;stroke-linejoin:round;stroke-miterlimit:10;" d="M97.312,140
				H44.273c-2.876,0-5.207,2.331-5.207,5.207v6.175c0,2.876,2.331,5.207,5.207,5.207h53.039V140z"/>
			<path style="fill:#FFFFFF;stroke:#263238;stroke-linecap:round;stroke-linejoin:round;stroke-miterlimit:10;" d="M74.64,153.64
				c-2.952,0-5.345-2.393-5.345-5.345v0c0-2.952,2.393-5.345,5.345-5.345h31.887V140H72.428c-3.767,0-6.82,3.053-6.82,6.82v2.949
				c0,3.767,3.053,6.82,6.82,6.82h34.099v-2.949H74.64z"/>
			<path style="fill:#FFFFFF;stroke:#263238;stroke-linecap:round;stroke-linejoin:round;stroke-miterlimit:10;" d="
				M104.859,142.949H73.376c-2.254,0-4.081,1.827-4.081,4.081v2.529c0,2.254,1.827,4.081,4.081,4.081h31.483V142.949z"/>
			
				<line style="fill:none;stroke:#263238;stroke-linecap:round;stroke-linejoin:round;stroke-miterlimit:10;" x1="70.032" y1="146.267" x2="79.617" y2="146.267"/>
			
				<line style="fill:none;stroke:#263238;stroke-linecap:round;stroke-linejoin:round;stroke-miterlimit:10;" x1="70.032" y1="149.216" x2="89.202" y2="149.216"/>
		</g>
	</g>
</g>
<g id="Plants">
	<g>
		<path style="fill:#263238;" d="M422.757,342.277c0.022,0.059,3.28-2.545,3.466-2.733c2.16-2.174,5.056-7.645,3.48-10.694
			c-1.135-2.197-3.903-2.656-5.89-1.36c-2.029,1.324-2.866,4.189-3.024,6.473C420.603,336.644,422.755,342.272,422.757,342.277z"/>
		<path style="fill:#263238;" d="M374.814,304.642c1.324,2.339,6.224,5.847,6.228,5.849c0.051,0.036,1.331-3.931,1.384-4.191
			c0.602-3.005-0.001-9.166-2.997-10.84c-2.159-1.206-4.72-0.062-5.663,2.115C372.803,299.799,373.686,302.65,374.814,304.642z"/>
		<path style="fill:#263238;" d="M366.003,319.848c1.819,1.831,7.056,3.811,7.473,3.967c-1.128,2.917-2.048,6.001-2.807,9.174
			c-0.436,1.813-0.82,3.654-1.18,5.503c0.039-0.869,0.067-1.646,0.06-1.755c-0.213-3.058-2.421-8.84-5.753-9.663
			c-2.401-0.593-4.569,1.186-4.903,3.535c-0.341,2.399,1.263,4.916,2.877,6.54c1.638,1.647,6.068,3.425,7.247,3.88
			c-0.131,0.711-0.27,1.42-0.398,2.131c-0.615,3.414-1.215,6.824-1.905,10.15c-0.242,1.172-0.524,2.318-0.802,3.465
			c0.034-0.772,0.056-1.422,0.049-1.522c-0.213-3.057-2.421-8.84-5.753-9.663c-2.401-0.593-4.569,1.186-4.903,3.535
			c-0.341,2.399,1.263,4.915,2.877,6.539c1.563,1.572,5.637,3.25,7.035,3.797c-0.32,1.166-0.639,2.335-1.002,3.451
			c-0.265,0.756-0.468,1.503-0.776,2.247c-0.29,0.744-0.577,1.48-0.861,2.209c-0.599,1.384-1.208,2.816-1.827,4.152
			c-0.423,0.932-0.843,1.813-1.264,2.701c0.255-1.164,0.707-3.453,0.723-3.649c0.253-3.054-1.054-9.105-4.223-10.423
			c-2.283-0.95-4.696,0.48-5.382,2.751c-0.7,2.32,0.504,5.05,1.853,6.9c1.486,2.036,6.158,4.7,6.744,5.029
			c-0.701,1.467-1.397,2.888-2.076,4.217c-2.334,4.604-4.454,8.351-5.974,10.954l1.862,1.397c0.044-0.079,0.085-0.151,0.13-0.233
			c1.481-2.668,3.544-6.505,5.805-11.217c0.718-1.487,1.456-3.091,2.198-4.744c0.416,0.113,2.789,0.743,5.079,1.052
			c0.263,2.576,2.527,7.059,2.823,7.635c-1.394,0.837-2.758,1.638-4.058,2.373c-4.49,2.554-8.328,4.511-11.032,5.844l2.043,1.533
			c2.616-1.377,6.062-3.258,10.012-5.62c1.419-0.844,2.919-1.774,4.45-2.744c0.435,0.495,4.017,4.525,6.32,5.558
			c2.088,0.937,5.01,1.549,7.134,0.384c2.08-1.141,2.979-3.799,1.577-5.835c-1.946-2.827-8.136-2.852-11.072-1.972
			c-0.173,0.052-1.989,0.825-3.127,1.332c0.624-0.4,1.233-0.78,1.87-1.2c1.265-0.82,2.503-1.676,3.838-2.592
			c0.629-0.465,1.265-0.935,1.907-1.409c0.647-0.457,1.272-1.021,1.916-1.534c1.469-1.22,2.898-2.528,4.309-3.878
			c0.721,1.106,3.339,4.996,5.27,6.244c1.922,1.242,4.717,2.29,6.993,1.46c2.229-0.813,3.52-3.303,2.443-5.529
			c-1.496-3.089-7.611-4.052-10.646-3.626c-0.189,0.026-2.333,0.576-3.505,0.901c0.842-0.818,1.686-1.63,2.51-2.486
			c2.381-2.468,4.713-5.041,7.052-7.597c0.716-0.784,1.439-1.555,2.159-2.331c0.252,0.396,3.263,5.087,5.426,6.485
			c1.923,1.242,4.717,2.29,6.993,1.46c2.229-0.813,3.52-3.304,2.443-5.529c-1.496-3.089-7.611-4.052-10.646-3.627
			c-0.229,0.032-3.312,0.828-4.086,1.069c1.588-1.707,3.185-3.394,4.828-4.993c2.264-2.209,4.607-4.252,7.023-6.063
			c0.117,0.185,3.238,5.095,5.453,6.527c1.923,1.242,4.717,2.29,6.994,1.46c2.229-0.813,3.52-3.303,2.443-5.529
			c-1.496-3.089-7.61-4.052-10.645-3.627c-0.199,0.028-2.548,0.632-3.659,0.945c-0.047-0.098-0.039-0.08-0.085-0.177
			c2.612-1.908,5.382-3.428,8.045-4.723c1.541-0.753,3.056-1.387,4.545-1.97c0.487,0.974,2.764,5.401,4.615,6.91
			c1.775,1.446,4.437,2.795,6.791,2.22c2.305-0.564,3.862-2.897,3.035-5.228c-1.147-3.235-7.119-4.863-10.182-4.774
			c-0.167,0.005-1.855,0.242-3.082,0.432c0.676-0.253,1.368-0.526,2.02-0.756c2.446-0.868,4.739-1.511,6.775-2.065
			c1.16-0.305,2.215-0.559,3.205-0.786c0.977,0.707,4.95,3.503,7.247,3.981c2.241,0.465,5.226,0.436,7.05-1.16
			c1.786-1.562,2.092-4.351,0.285-6.038c-2.509-2.342-8.559-1.035-11.237,0.456c-0.231,0.129-3.619,2.56-3.568,2.597
			c0,0,0.047,0.034,0.059,0.043c-0.957,0.199-1.98,0.423-3.094,0.691c-2.052,0.51-4.366,1.106-6.84,1.924
			c-2.475,0.811-5.141,1.762-7.859,3.016c-2.726,1.254-5.529,2.712-8.224,4.589c-0.031,0.021-0.06,0.047-0.09,0.069
			c0.617-0.794,2.27-3.07,2.377-3.259c1.509-2.667,2.857-8.709,0.533-11.234c-1.675-1.819-4.466-1.531-6.04,0.244
			c-1.607,1.813-1.658,4.797-1.208,7.041c0.508,2.531,3.783,7.071,4.045,7.432c-2.55,1.811-5.019,3.876-7.403,6.103
			c-1.364,1.272-2.699,2.595-4.02,3.939c0.512-0.703,0.964-1.336,1.018-1.431c1.509-2.668,2.857-8.709,0.533-11.234
			c-1.675-1.819-4.466-1.531-6.04,0.244c-1.608,1.813-1.658,4.797-1.208,7.042c0.457,2.277,3.171,6.204,3.904,7.234
			c-0.502,0.521-1.008,1.035-1.507,1.558c-2.397,2.508-4.777,5.021-7.188,7.414c-0.849,0.844-1.717,1.644-2.581,2.447
			c0.454-0.625,0.831-1.156,0.88-1.242c1.509-2.668,2.858-8.709,0.532-11.234c-1.675-1.819-4.465-1.532-6.04,0.244
			c-1.607,1.813-1.658,4.797-1.207,7.042c0.436,2.173,2.909,5.82,3.773,7.048c-0.911,0.796-1.821,1.595-2.739,2.325
			c-0.638,0.484-1.219,0.995-1.887,1.447c-0.652,0.46-1.297,0.916-1.936,1.367c-1.263,0.824-2.561,1.682-3.814,2.455
			c-0.867,0.544-1.703,1.047-2.544,1.555c0.855-0.83,2.495-2.491,2.616-2.645c1.26-1.6,2.668-4.681,2.914-7.406
			c0.187-0.235,0.353-0.486,0.494-0.752c1.105-2.099,0.389-4.812-1.904-5.737c-3.183-1.285-8.36,2.109-10.323,4.463
			c-0.116,0.139-1.204,1.786-1.873,2.836c0.3-0.678,0.598-1.331,0.898-2.033c0.602-1.382,1.163-2.779,1.772-4.28
			c0.268-0.735,0.539-1.477,0.813-2.227c0.288-0.738,0.497-1.554,0.752-2.336c0.552-1.829,1.022-3.708,1.454-5.612
			c1.211,0.524,5.54,2.325,7.84,2.3c2.289-0.025,5.198-0.692,6.638-2.64c1.41-1.908,1.114-4.697-1.013-5.959
			c-2.952-1.752-8.583,0.819-10.88,2.848c-0.143,0.127-1.628,1.768-2.426,2.685c0.251-1.147,0.507-2.29,0.723-3.458
			c0.624-3.372,1.15-6.804,1.69-10.227c0.165-1.048,0.342-2.091,0.515-3.135c0.429,0.191,5.529,2.443,8.104,2.415
			c2.289-0.024,5.198-0.692,6.639-2.64c1.41-1.908,1.114-4.697-1.013-5.959c-2.952-1.752-8.583,0.819-10.88,2.848
			c-0.173,0.153-2.306,2.518-2.818,3.145c0.382-2.3,0.784-4.588,1.272-6.828c0.669-3.091,1.497-6.088,2.514-8.931
			c0.2,0.09,5.511,2.464,8.149,2.435c2.289-0.024,5.198-0.692,6.639-2.64c1.41-1.908,1.114-4.697-1.013-5.959
			c-2.952-1.752-8.583,0.819-10.879,2.848c-0.151,0.133-1.779,1.934-2.532,2.808c-0.093-0.055-0.076-0.045-0.168-0.1
			c1.126-3.033,2.598-5.83,4.105-8.379c0.87-1.478,1.784-2.843,2.703-4.15c0.944,0.544,5.285,2.98,7.662,3.217
			c2.278,0.227,5.243-0.117,6.888-1.895c1.611-1.742,1.623-4.547-0.352-6.035c-2.741-2.065-8.621-0.128-11.126,1.636
			c-0.136,0.096-1.414,1.225-2.333,2.06c0.424-0.583,0.851-1.194,1.268-1.745c1.561-2.073,3.119-3.875,4.512-5.46
			c0.799-0.895,1.54-1.688,2.24-2.423c1.205,0.05,6.061,0.191,8.24-0.677c2.126-0.848,4.599-2.52,5.24-4.856
			c0.627-2.288-0.655-4.783-3.093-5.193c-3.385-0.569-7.71,3.858-9.121,6.579c-0.122,0.235-1.606,4.132-1.543,4.135
			c0,0,0.059,0.003,0.073,0.003c-0.688,0.694-1.418,1.446-2.199,2.283c-1.43,1.557-3.031,3.331-4.644,5.378
			c-1.617,2.042-3.316,4.306-4.891,6.851c-1.582,2.55-3.116,5.313-4.328,8.364c-0.014,0.035-0.023,0.072-0.037,0.107
			c0.077-1.002,0.2-3.813,0.185-4.03c-0.213-3.057-2.421-8.84-5.753-9.664c-2.401-0.593-4.569,1.186-4.903,3.535
			C362.785,315.707,364.389,318.224,366.003,319.848z"/>
		<path style="opacity:0.3;fill:#263238;" d="M374.814,304.642c1.324,2.339,6.224,5.847,6.228,5.849
			c0.051,0.036,1.331-3.931,1.384-4.191c0.602-3.005-0.001-9.166-2.997-10.84c-2.159-1.206-4.72-0.062-5.663,2.115
			C372.803,299.799,373.686,302.65,374.814,304.642z"/>
		<path style="opacity:0.3;fill:#263238;" d="M422.757,342.277c0.022,0.059,3.28-2.545,3.466-2.733
			c2.16-2.174,5.056-7.645,3.48-10.694c-1.135-2.197-3.903-2.656-5.89-1.36c-2.029,1.324-2.866,4.189-3.024,6.473
			C420.603,336.644,422.755,342.272,422.757,342.277z"/>
		<path style="opacity:0.3;fill:#263238;" d="M366.003,319.848c1.819,1.831,7.056,3.811,7.473,3.967
			c-1.128,2.917-2.048,6.001-2.807,9.174c-0.436,1.813-0.82,3.654-1.18,5.503c0.039-0.869,0.067-1.646,0.06-1.755
			c-0.213-3.058-2.421-8.84-5.753-9.663c-2.401-0.593-4.569,1.186-4.903,3.535c-0.341,2.399,1.263,4.916,2.877,6.54
			c1.638,1.647,6.068,3.425,7.247,3.88c-0.131,0.711-0.27,1.42-0.398,2.131c-0.615,3.414-1.215,6.824-1.905,10.15
			c-0.242,1.172-0.524,2.318-0.802,3.465c0.034-0.772,0.056-1.422,0.049-1.522c-0.213-3.057-2.421-8.84-5.753-9.663
			c-2.401-0.593-4.569,1.186-4.903,3.535c-0.341,2.399,1.263,4.915,2.877,6.539c1.563,1.572,5.637,3.25,7.035,3.797
			c-0.32,1.166-0.639,2.335-1.002,3.451c-0.265,0.756-0.468,1.503-0.776,2.247c-0.29,0.744-0.577,1.48-0.861,2.209
			c-0.599,1.384-1.208,2.816-1.827,4.152c-0.423,0.932-0.843,1.813-1.264,2.701c0.255-1.164,0.707-3.453,0.723-3.649
			c0.253-3.054-1.054-9.105-4.223-10.423c-2.283-0.95-4.696,0.48-5.382,2.751c-0.7,2.32,0.504,5.05,1.853,6.9
			c1.486,2.036,6.158,4.7,6.744,5.029c-0.701,1.467-1.397,2.888-2.076,4.217c-2.334,4.604-4.454,8.351-5.974,10.954l1.862,1.397
			c0.044-0.079,0.085-0.151,0.13-0.233c1.481-2.668,3.544-6.505,5.805-11.217c0.718-1.487,1.456-3.091,2.198-4.744
			c0.416,0.113,2.789,0.743,5.079,1.052c0.263,2.576,2.527,7.059,2.823,7.635c-1.394,0.837-2.758,1.638-4.058,2.373
			c-4.49,2.554-8.328,4.511-11.032,5.844l2.043,1.533c2.616-1.377,6.062-3.258,10.012-5.62c1.419-0.844,2.919-1.774,4.45-2.744
			c0.435,0.495,4.017,4.525,6.32,5.558c2.088,0.937,5.01,1.549,7.134,0.384c2.08-1.141,2.979-3.799,1.577-5.835
			c-1.946-2.827-8.136-2.852-11.072-1.972c-0.173,0.052-1.989,0.825-3.127,1.332c0.624-0.4,1.233-0.78,1.87-1.2
			c1.265-0.82,2.503-1.676,3.838-2.592c0.629-0.465,1.265-0.935,1.907-1.409c0.647-0.457,1.272-1.021,1.916-1.534
			c1.469-1.22,2.898-2.528,4.309-3.878c0.721,1.106,3.339,4.996,5.27,6.244c1.922,1.242,4.717,2.29,6.993,1.46
			c2.229-0.813,3.52-3.303,2.443-5.529c-1.496-3.089-7.611-4.052-10.646-3.626c-0.189,0.026-2.333,0.576-3.505,0.901
			c0.842-0.818,1.686-1.63,2.51-2.486c2.381-2.468,4.713-5.041,7.052-7.597c0.716-0.784,1.439-1.555,2.159-2.331
			c0.252,0.396,3.263,5.087,5.426,6.485c1.923,1.242,4.717,2.29,6.993,1.46c2.229-0.813,3.52-3.304,2.443-5.529
			c-1.496-3.089-7.611-4.052-10.646-3.627c-0.229,0.032-3.312,0.828-4.086,1.069c1.588-1.707,3.185-3.394,4.828-4.993
			c2.264-2.209,4.607-4.252,7.023-6.063c0.117,0.185,3.238,5.095,5.453,6.527c1.923,1.242,4.717,2.29,6.994,1.46
			c2.229-0.813,3.52-3.303,2.443-5.529c-1.496-3.089-7.61-4.052-10.645-3.627c-0.199,0.028-2.548,0.632-3.659,0.945
			c-0.047-0.098-0.039-0.08-0.085-0.177c2.612-1.908,5.382-3.428,8.045-4.723c1.541-0.753,3.056-1.387,4.545-1.97
			c0.487,0.974,2.764,5.401,4.615,6.91c1.775,1.446,4.437,2.795,6.791,2.22c2.305-0.564,3.862-2.897,3.035-5.228
			c-1.147-3.235-7.119-4.863-10.182-4.774c-0.167,0.005-1.855,0.242-3.082,0.432c0.676-0.253,1.368-0.526,2.02-0.756
			c2.446-0.868,4.739-1.511,6.775-2.065c1.16-0.305,2.215-0.559,3.205-0.786c0.977,0.707,4.95,3.503,7.247,3.981
			c2.241,0.465,5.226,0.436,7.05-1.16c1.786-1.562,2.092-4.351,0.285-6.038c-2.509-2.342-8.559-1.035-11.237,0.456
			c-0.231,0.129-3.619,2.56-3.568,2.597c0,0,0.047,0.034,0.059,0.043c-0.957,0.199-1.98,0.423-3.094,0.691
			c-2.052,0.51-4.366,1.106-6.84,1.924c-2.475,0.811-5.141,1.762-7.859,3.016c-2.726,1.254-5.529,2.712-8.224,4.589
			c-0.031,0.021-0.06,0.047-0.09,0.069c0.617-0.794,2.27-3.07,2.377-3.259c1.509-2.667,2.857-8.709,0.533-11.234
			c-1.675-1.819-4.466-1.531-6.04,0.244c-1.607,1.813-1.658,4.797-1.208,7.041c0.508,2.531,3.783,7.071,4.045,7.432
			c-2.55,1.811-5.019,3.876-7.403,6.103c-1.364,1.272-2.699,2.595-4.02,3.939c0.512-0.703,0.964-1.336,1.018-1.431
			c1.509-2.668,2.857-8.709,0.533-11.234c-1.675-1.819-4.466-1.531-6.04,0.244c-1.608,1.813-1.658,4.797-1.208,7.042
			c0.457,2.277,3.171,6.204,3.904,7.234c-0.502,0.521-1.008,1.035-1.507,1.558c-2.397,2.508-4.777,5.021-7.188,7.414
			c-0.849,0.844-1.717,1.644-2.581,2.447c0.454-0.625,0.831-1.156,0.88-1.242c1.509-2.668,2.858-8.709,0.532-11.234
			c-1.675-1.819-4.465-1.532-6.04,0.244c-1.607,1.813-1.658,4.797-1.207,7.042c0.436,2.173,2.909,5.82,3.773,7.048
			c-0.911,0.796-1.821,1.595-2.739,2.325c-0.638,0.484-1.219,0.995-1.887,1.447c-0.652,0.46-1.297,0.916-1.936,1.367
			c-1.263,0.824-2.561,1.682-3.814,2.455c-0.867,0.544-1.703,1.047-2.544,1.555c0.855-0.83,2.495-2.491,2.616-2.645
			c1.26-1.6,2.668-4.681,2.914-7.406c0.187-0.235,0.353-0.486,0.494-0.752c1.105-2.099,0.389-4.812-1.904-5.737
			c-3.183-1.285-8.36,2.109-10.323,4.463c-0.116,0.139-1.204,1.786-1.873,2.836c0.3-0.678,0.598-1.331,0.898-2.033
			c0.602-1.382,1.163-2.779,1.772-4.28c0.268-0.735,0.539-1.477,0.813-2.227c0.288-0.738,0.497-1.554,0.752-2.336
			c0.552-1.829,1.022-3.708,1.454-5.612c1.211,0.524,5.54,2.325,7.84,2.3c2.289-0.025,5.198-0.692,6.638-2.64
			c1.41-1.908,1.114-4.697-1.013-5.959c-2.952-1.752-8.583,0.819-10.88,2.848c-0.143,0.127-1.628,1.768-2.426,2.685
			c0.251-1.147,0.507-2.29,0.723-3.458c0.624-3.372,1.15-6.804,1.69-10.227c0.165-1.048,0.342-2.091,0.515-3.135
			c0.429,0.191,5.529,2.443,8.104,2.415c2.289-0.024,5.198-0.692,6.639-2.64c1.41-1.908,1.114-4.697-1.013-5.959
			c-2.952-1.752-8.583,0.819-10.88,2.848c-0.173,0.153-2.306,2.518-2.818,3.145c0.382-2.3,0.784-4.588,1.272-6.828
			c0.669-3.091,1.497-6.088,2.514-8.931c0.2,0.09,5.511,2.464,8.149,2.435c2.289-0.024,5.198-0.692,6.639-2.64
			c1.41-1.908,1.114-4.697-1.013-5.959c-2.952-1.752-8.583,0.819-10.879,2.848c-0.151,0.133-1.779,1.934-2.532,2.808
			c-0.093-0.055-0.076-0.045-0.168-0.1c1.126-3.033,2.598-5.83,4.105-8.379c0.87-1.478,1.784-2.843,2.703-4.15
			c0.944,0.544,5.285,2.98,7.662,3.217c2.278,0.227,5.243-0.117,6.888-1.895c1.611-1.742,1.623-4.547-0.352-6.035
			c-2.741-2.065-8.621-0.128-11.126,1.636c-0.136,0.096-1.414,1.225-2.333,2.06c0.424-0.583,0.851-1.194,1.268-1.745
			c1.561-2.073,3.119-3.875,4.512-5.46c0.799-0.895,1.54-1.688,2.24-2.423c1.205,0.05,6.061,0.191,8.24-0.677
			c2.126-0.848,4.599-2.52,5.24-4.856c0.627-2.288-0.655-4.783-3.093-5.193c-3.385-0.569-7.71,3.858-9.121,6.579
			c-0.122,0.235-1.606,4.132-1.543,4.135c0,0,0.059,0.003,0.073,0.003c-0.688,0.694-1.418,1.446-2.199,2.283
			c-1.43,1.557-3.031,3.331-4.644,5.378c-1.617,2.042-3.316,4.306-4.891,6.851c-1.582,2.55-3.116,5.313-4.328,8.364
			c-0.014,0.035-0.023,0.072-0.037,0.107c0.077-1.002,0.2-3.813,0.185-4.03c-0.213-3.057-2.421-8.84-5.753-9.664
			c-2.401-0.593-4.569,1.186-4.903,3.535C362.785,315.707,364.389,318.224,366.003,319.848z"/>
	</g>
	<g>
		<path style="fill:#263238;" d="M93.486,342.277c-0.022,0.059-3.28-2.545-3.466-2.733c-2.16-2.174-5.056-7.645-3.48-10.694
			c1.135-2.197,3.902-2.656,5.889-1.36c2.029,1.324,2.866,4.189,3.024,6.473C95.64,336.644,93.488,342.272,93.486,342.277z"/>
		<path style="fill:#263238;" d="M141.429,304.642c-1.324,2.339-6.224,5.847-6.228,5.849c-0.051,0.036-1.331-3.931-1.384-4.191
			c-0.602-3.005,0.001-9.166,2.997-10.84c2.159-1.206,4.72-0.062,5.663,2.115C143.439,299.799,142.557,302.65,141.429,304.642z"/>
		<path style="fill:#263238;" d="M150.24,319.848c-1.82,1.831-7.056,3.811-7.473,3.967c1.128,2.917,2.048,6.001,2.807,9.174
			c0.436,1.813,0.82,3.654,1.18,5.503c-0.039-0.869-0.068-1.646-0.06-1.755c0.213-3.058,2.421-8.84,5.753-9.663
			c2.401-0.593,4.569,1.186,4.903,3.535c0.341,2.399-1.263,4.916-2.877,6.54c-1.637,1.647-6.068,3.425-7.247,3.88
			c0.131,0.711,0.27,1.42,0.398,2.131c0.615,3.414,1.215,6.824,1.905,10.15c0.242,1.172,0.524,2.318,0.802,3.465
			c-0.033-0.772-0.055-1.422-0.049-1.522c0.213-3.057,2.421-8.84,5.753-9.663c2.401-0.593,4.569,1.186,4.903,3.535
			c0.341,2.399-1.263,4.915-2.877,6.539c-1.563,1.572-5.637,3.25-7.035,3.797c0.32,1.166,0.639,2.335,1.002,3.451
			c0.265,0.756,0.468,1.503,0.776,2.247c0.29,0.744,0.577,1.48,0.861,2.209c0.599,1.384,1.208,2.816,1.827,4.152
			c0.422,0.932,0.843,1.813,1.264,2.701c-0.255-1.164-0.707-3.453-0.723-3.649c-0.253-3.054,1.054-9.105,4.223-10.423
			c2.283-0.95,4.696,0.48,5.382,2.751c0.7,2.32-0.504,5.05-1.853,6.9c-1.486,2.036-6.158,4.7-6.744,5.029
			c0.701,1.467,1.397,2.888,2.076,4.217c2.334,4.604,4.454,8.351,5.974,10.954l-1.862,1.397c-0.044-0.079-0.085-0.151-0.13-0.233
			c-1.481-2.668-3.544-6.505-5.805-11.217c-0.718-1.487-1.456-3.091-2.198-4.744c-0.416,0.113-2.789,0.743-5.079,1.052
			c-0.263,2.576-2.527,7.059-2.823,7.635c1.394,0.837,2.759,1.638,4.058,2.373c4.49,2.554,8.328,4.511,11.032,5.844l-2.043,1.533
			c-2.616-1.377-6.062-3.258-10.012-5.62c-1.419-0.844-2.919-1.774-4.45-2.744c-0.435,0.495-4.017,4.525-6.319,5.558
			c-2.088,0.937-5.01,1.549-7.134,0.384c-2.08-1.141-2.979-3.799-1.577-5.835c1.946-2.827,8.136-2.852,11.072-1.972
			c0.173,0.052,1.989,0.825,3.127,1.332c-0.624-0.4-1.233-0.78-1.87-1.2c-1.265-0.82-2.503-1.676-3.838-2.592
			c-0.629-0.465-1.265-0.935-1.907-1.409c-0.647-0.457-1.272-1.021-1.916-1.534c-1.469-1.22-2.898-2.528-4.309-3.878
			c-0.721,1.106-3.339,4.996-5.27,6.244c-1.922,1.242-4.717,2.29-6.993,1.46c-2.229-0.813-3.52-3.303-2.443-5.529
			c1.496-3.089,7.611-4.052,10.646-3.626c0.189,0.026,2.333,0.576,3.505,0.901c-0.842-0.818-1.686-1.63-2.51-2.486
			c-2.381-2.468-4.713-5.041-7.052-7.597c-0.716-0.784-1.438-1.555-2.159-2.331c-0.252,0.396-3.263,5.087-5.426,6.485
			c-1.923,1.242-4.717,2.29-6.993,1.46c-2.229-0.813-3.52-3.304-2.443-5.529c1.495-3.089,7.611-4.052,10.646-3.627
			c0.229,0.032,3.312,0.828,4.086,1.069c-1.588-1.707-3.186-3.394-4.828-4.993c-2.264-2.209-4.607-4.252-7.023-6.063
			c-0.117,0.185-3.238,5.095-5.453,6.527c-1.923,1.242-4.717,2.29-6.994,1.46c-2.229-0.813-3.52-3.303-2.443-5.529
			c1.496-3.089,7.61-4.052,10.645-3.627c0.199,0.028,2.548,0.632,3.659,0.945c0.047-0.098,0.039-0.08,0.085-0.177
			c-2.612-1.908-5.382-3.428-8.045-4.723c-1.541-0.753-3.056-1.387-4.545-1.97c-0.487,0.974-2.764,5.401-4.615,6.91
			c-1.775,1.446-4.437,2.795-6.791,2.22c-2.305-0.564-3.862-2.897-3.035-5.228c1.147-3.235,7.119-4.863,10.182-4.774
			c0.167,0.005,1.855,0.242,3.082,0.432c-0.675-0.253-1.368-0.526-2.02-0.756c-2.446-0.868-4.739-1.511-6.775-2.065
			c-1.16-0.305-2.215-0.559-3.205-0.786c-0.977,0.707-4.95,3.503-7.247,3.981c-2.241,0.465-5.226,0.436-7.05-1.16
			c-1.786-1.562-2.092-4.351-0.285-6.038c2.509-2.342,8.559-1.035,11.237,0.456c0.231,0.129,3.619,2.56,3.568,2.597
			c0,0-0.047,0.034-0.059,0.043c0.957,0.199,1.98,0.423,3.094,0.691c2.052,0.51,4.366,1.106,6.84,1.924
			c2.475,0.811,5.141,1.762,7.859,3.016c2.726,1.254,5.53,2.712,8.224,4.589c0.031,0.021,0.06,0.047,0.09,0.069
			c-0.617-0.794-2.27-3.07-2.377-3.259c-1.509-2.667-2.858-8.709-0.533-11.234c1.675-1.819,4.466-1.531,6.04,0.244
			c1.607,1.813,1.658,4.797,1.208,7.041c-0.508,2.531-3.783,7.071-4.045,7.432c2.55,1.811,5.019,3.876,7.403,6.103
			c1.364,1.272,2.699,2.595,4.02,3.939c-0.512-0.703-0.964-1.336-1.018-1.431c-1.509-2.668-2.857-8.709-0.533-11.234
			c1.675-1.819,4.466-1.531,6.04,0.244c1.608,1.813,1.658,4.797,1.208,7.042c-0.457,2.277-3.171,6.204-3.904,7.234
			c0.501,0.521,1.008,1.035,1.507,1.558c2.396,2.508,4.777,5.021,7.188,7.414c0.849,0.844,1.717,1.644,2.581,2.447
			c-0.454-0.625-0.831-1.156-0.88-1.242c-1.509-2.668-2.858-8.709-0.532-11.234c1.675-1.819,4.465-1.532,6.04,0.244
			c1.607,1.813,1.658,4.797,1.207,7.042c-0.436,2.173-2.909,5.82-3.773,7.048c0.911,0.796,1.821,1.595,2.739,2.325
			c0.638,0.484,1.219,0.995,1.887,1.447c0.652,0.46,1.297,0.916,1.937,1.367c1.263,0.824,2.561,1.682,3.814,2.455
			c0.867,0.544,1.703,1.047,2.544,1.555c-0.855-0.83-2.495-2.491-2.616-2.645c-1.26-1.6-2.668-4.681-2.914-7.406
			c-0.187-0.235-0.353-0.486-0.494-0.752c-1.105-2.099-0.389-4.812,1.904-5.737c3.183-1.285,8.36,2.109,10.323,4.463
			c0.116,0.139,1.204,1.786,1.873,2.836c-0.3-0.678-0.598-1.331-0.898-2.033c-0.602-1.382-1.163-2.779-1.772-4.28
			c-0.268-0.735-0.539-1.477-0.813-2.227c-0.288-0.738-0.497-1.554-0.752-2.336c-0.552-1.829-1.022-3.708-1.454-5.612
			c-1.212,0.524-5.54,2.325-7.84,2.3c-2.289-0.025-5.198-0.692-6.638-2.64c-1.41-1.908-1.114-4.697,1.013-5.959
			c2.952-1.752,8.583,0.819,10.88,2.848c0.143,0.127,1.628,1.768,2.426,2.685c-0.251-1.147-0.507-2.29-0.723-3.458
			c-0.624-3.372-1.15-6.804-1.691-10.227c-0.165-1.048-0.342-2.091-0.515-3.135c-0.429,0.191-5.529,2.443-8.104,2.415
			c-2.289-0.024-5.198-0.692-6.639-2.64c-1.41-1.908-1.114-4.697,1.013-5.959c2.952-1.752,8.583,0.819,10.88,2.848
			c0.173,0.153,2.305,2.518,2.818,3.145c-0.382-2.3-0.784-4.588-1.272-6.828c-0.669-3.091-1.497-6.088-2.514-8.931
			c-0.199,0.09-5.511,2.464-8.149,2.435c-2.289-0.024-5.198-0.692-6.639-2.64c-1.41-1.908-1.114-4.697,1.013-5.959
			c2.952-1.752,8.583,0.819,10.88,2.848c0.151,0.133,1.779,1.934,2.532,2.808c0.093-0.055,0.076-0.045,0.168-0.1
			c-1.126-3.033-2.598-5.83-4.105-8.379c-0.87-1.478-1.784-2.843-2.704-4.15c-0.944,0.544-5.285,2.98-7.662,3.217
			c-2.278,0.227-5.243-0.117-6.888-1.895c-1.611-1.742-1.623-4.547,0.352-6.035c2.741-2.065,8.621-0.128,11.127,1.636
			c0.136,0.096,1.413,1.225,2.332,2.06c-0.424-0.583-0.851-1.194-1.268-1.745c-1.561-2.073-3.119-3.875-4.512-5.46
			c-0.799-0.895-1.54-1.688-2.24-2.423c-1.205,0.05-6.061,0.191-8.24-0.677c-2.126-0.848-4.599-2.52-5.24-4.856
			c-0.627-2.288,0.655-4.783,3.093-5.193c3.385-0.569,7.71,3.858,9.121,6.579c0.122,0.235,1.606,4.132,1.543,4.135
			c0,0-0.059,0.003-0.072,0.003c0.688,0.694,1.418,1.446,2.199,2.283c1.43,1.557,3.031,3.331,4.644,5.378
			c1.617,2.042,3.316,4.306,4.891,6.851c1.582,2.55,3.116,5.313,4.328,8.364c0.013,0.035,0.023,0.072,0.037,0.107
			c-0.077-1.002-0.2-3.813-0.185-4.03c0.213-3.057,2.421-8.84,5.753-9.664c2.401-0.593,4.569,1.186,4.903,3.535
			C153.458,315.707,151.854,318.224,150.24,319.848z"/>
		<path style="opacity:0.3;fill:#263238;" d="M141.429,304.642c-1.324,2.339-6.224,5.847-6.228,5.849
			c-0.051,0.036-1.331-3.931-1.384-4.191c-0.602-3.005,0.001-9.166,2.997-10.84c2.159-1.206,4.72-0.062,5.663,2.115
			C143.439,299.799,142.557,302.65,141.429,304.642z"/>
		<path style="opacity:0.3;fill:#263238;" d="M93.486,342.277c-0.022,0.059-3.28-2.545-3.466-2.733
			c-2.16-2.174-5.056-7.645-3.48-10.694c1.135-2.197,3.902-2.656,5.889-1.36c2.029,1.324,2.866,4.189,3.024,6.473
			C95.64,336.644,93.488,342.272,93.486,342.277z"/>
		<path style="opacity:0.3;fill:#263238;" d="M150.24,319.848c-1.82,1.831-7.056,3.811-7.473,3.967
			c1.128,2.917,2.048,6.001,2.807,9.174c0.436,1.813,0.82,3.654,1.18,5.503c-0.039-0.869-0.068-1.646-0.06-1.755
			c0.213-3.058,2.421-8.84,5.753-9.663c2.401-0.593,4.569,1.186,4.903,3.535c0.341,2.399-1.263,4.916-2.877,6.54
			c-1.637,1.647-6.068,3.425-7.247,3.88c0.131,0.711,0.27,1.42,0.398,2.131c0.615,3.414,1.215,6.824,1.905,10.15
			c0.242,1.172,0.524,2.318,0.802,3.465c-0.033-0.772-0.055-1.422-0.049-1.522c0.213-3.057,2.421-8.84,5.753-9.663
			c2.401-0.593,4.569,1.186,4.903,3.535c0.341,2.399-1.263,4.915-2.877,6.539c-1.563,1.572-5.637,3.25-7.035,3.797
			c0.32,1.166,0.639,2.335,1.002,3.451c0.265,0.756,0.468,1.503,0.776,2.247c0.29,0.744,0.577,1.48,0.861,2.209
			c0.599,1.384,1.208,2.816,1.827,4.152c0.422,0.932,0.843,1.813,1.264,2.701c-0.255-1.164-0.707-3.453-0.723-3.649
			c-0.253-3.054,1.054-9.105,4.223-10.423c2.283-0.95,4.696,0.48,5.382,2.751c0.7,2.32-0.504,5.05-1.853,6.9
			c-1.486,2.036-6.158,4.7-6.744,5.029c0.701,1.467,1.397,2.888,2.076,4.217c2.334,4.604,4.454,8.351,5.974,10.954l-1.862,1.397
			c-0.044-0.079-0.085-0.151-0.13-0.233c-1.481-2.668-3.544-6.505-5.805-11.217c-0.718-1.487-1.456-3.091-2.198-4.744
			c-0.416,0.113-2.789,0.743-5.079,1.052c-0.263,2.576-2.527,7.059-2.823,7.635c1.394,0.837,2.759,1.638,4.058,2.373
			c4.49,2.554,8.328,4.511,11.032,5.844l-2.043,1.533c-2.616-1.377-6.062-3.258-10.012-5.62c-1.419-0.844-2.919-1.774-4.45-2.744
			c-0.435,0.495-4.017,4.525-6.319,5.558c-2.088,0.937-5.01,1.549-7.134,0.384c-2.08-1.141-2.979-3.799-1.577-5.835
			c1.946-2.827,8.136-2.852,11.072-1.972c0.173,0.052,1.989,0.825,3.127,1.332c-0.624-0.4-1.233-0.78-1.87-1.2
			c-1.265-0.82-2.503-1.676-3.838-2.592c-0.629-0.465-1.265-0.935-1.907-1.409c-0.647-0.457-1.272-1.021-1.916-1.534
			c-1.469-1.22-2.898-2.528-4.309-3.878c-0.721,1.106-3.339,4.996-5.27,6.244c-1.922,1.242-4.717,2.29-6.993,1.46
			c-2.229-0.813-3.52-3.303-2.443-5.529c1.496-3.089,7.611-4.052,10.646-3.626c0.189,0.026,2.333,0.576,3.505,0.901
			c-0.842-0.818-1.686-1.63-2.51-2.486c-2.381-2.468-4.713-5.041-7.052-7.597c-0.716-0.784-1.438-1.555-2.159-2.331
			c-0.252,0.396-3.263,5.087-5.426,6.485c-1.923,1.242-4.717,2.29-6.993,1.46c-2.229-0.813-3.52-3.304-2.443-5.529
			c1.495-3.089,7.611-4.052,10.646-3.627c0.229,0.032,3.312,0.828,4.086,1.069c-1.588-1.707-3.186-3.394-4.828-4.993
			c-2.264-2.209-4.607-4.252-7.023-6.063c-0.117,0.185-3.238,5.095-5.453,6.527c-1.923,1.242-4.717,2.29-6.994,1.46
			c-2.229-0.813-3.52-3.303-2.443-5.529c1.496-3.089,7.61-4.052,10.645-3.627c0.199,0.028,2.548,0.632,3.659,0.945
			c0.047-0.098,0.039-0.08,0.085-0.177c-2.612-1.908-5.382-3.428-8.045-4.723c-1.541-0.753-3.056-1.387-4.545-1.97
			c-0.487,0.974-2.764,5.401-4.615,6.91c-1.775,1.446-4.437,2.795-6.791,2.22c-2.305-0.564-3.862-2.897-3.035-5.228
			c1.147-3.235,7.119-4.863,10.182-4.774c0.167,0.005,1.855,0.242,3.082,0.432c-0.675-0.253-1.368-0.526-2.02-0.756
			c-2.446-0.868-4.739-1.511-6.775-2.065c-1.16-0.305-2.215-0.559-3.205-0.786c-0.977,0.707-4.95,3.503-7.247,3.981
			c-2.241,0.465-5.226,0.436-7.05-1.16c-1.786-1.562-2.092-4.351-0.285-6.038c2.509-2.342,8.559-1.035,11.237,0.456
			c0.231,0.129,3.619,2.56,3.568,2.597c0,0-0.047,0.034-0.059,0.043c0.957,0.199,1.98,0.423,3.094,0.691
			c2.052,0.51,4.366,1.106,6.84,1.924c2.475,0.811,5.141,1.762,7.859,3.016c2.726,1.254,5.53,2.712,8.224,4.589
			c0.031,0.021,0.06,0.047,0.09,0.069c-0.617-0.794-2.27-3.07-2.377-3.259c-1.509-2.667-2.858-8.709-0.533-11.234
			c1.675-1.819,4.466-1.531,6.04,0.244c1.607,1.813,1.658,4.797,1.208,7.041c-0.508,2.531-3.783,7.071-4.045,7.432
			c2.55,1.811,5.019,3.876,7.403,6.103c1.364,1.272,2.699,2.595,4.02,3.939c-0.512-0.703-0.964-1.336-1.018-1.431
			c-1.509-2.668-2.857-8.709-0.533-11.234c1.675-1.819,4.466-1.531,6.04,0.244c1.608,1.813,1.658,4.797,1.208,7.042
			c-0.457,2.277-3.171,6.204-3.904,7.234c0.501,0.521,1.008,1.035,1.507,1.558c2.396,2.508,4.777,5.021,7.188,7.414
			c0.849,0.844,1.717,1.644,2.581,2.447c-0.454-0.625-0.831-1.156-0.88-1.242c-1.509-2.668-2.858-8.709-0.532-11.234
			c1.675-1.819,4.465-1.532,6.04,0.244c1.607,1.813,1.658,4.797,1.207,7.042c-0.436,2.173-2.909,5.82-3.773,7.048
			c0.911,0.796,1.821,1.595,2.739,2.325c0.638,0.484,1.219,0.995,1.887,1.447c0.652,0.46,1.297,0.916,1.937,1.367
			c1.263,0.824,2.561,1.682,3.814,2.455c0.867,0.544,1.703,1.047,2.544,1.555c-0.855-0.83-2.495-2.491-2.616-2.645
			c-1.26-1.6-2.668-4.681-2.914-7.406c-0.187-0.235-0.353-0.486-0.494-0.752c-1.105-2.099-0.389-4.812,1.904-5.737
			c3.183-1.285,8.36,2.109,10.323,4.463c0.116,0.139,1.204,1.786,1.873,2.836c-0.3-0.678-0.598-1.331-0.898-2.033
			c-0.602-1.382-1.163-2.779-1.772-4.28c-0.268-0.735-0.539-1.477-0.813-2.227c-0.288-0.738-0.497-1.554-0.752-2.336
			c-0.552-1.829-1.022-3.708-1.454-5.612c-1.212,0.524-5.54,2.325-7.84,2.3c-2.289-0.025-5.198-0.692-6.638-2.64
			c-1.41-1.908-1.114-4.697,1.013-5.959c2.952-1.752,8.583,0.819,10.88,2.848c0.143,0.127,1.628,1.768,2.426,2.685
			c-0.251-1.147-0.507-2.29-0.723-3.458c-0.624-3.372-1.15-6.804-1.691-10.227c-0.165-1.048-0.342-2.091-0.515-3.135
			c-0.429,0.191-5.529,2.443-8.104,2.415c-2.289-0.024-5.198-0.692-6.639-2.64c-1.41-1.908-1.114-4.697,1.013-5.959
			c2.952-1.752,8.583,0.819,10.88,2.848c0.173,0.153,2.305,2.518,2.818,3.145c-0.382-2.3-0.784-4.588-1.272-6.828
			c-0.669-3.091-1.497-6.088-2.514-8.931c-0.199,0.09-5.511,2.464-8.149,2.435c-2.289-0.024-5.198-0.692-6.639-2.64
			c-1.41-1.908-1.114-4.697,1.013-5.959c2.952-1.752,8.583,0.819,10.88,2.848c0.151,0.133,1.779,1.934,2.532,2.808
			c0.093-0.055,0.076-0.045,0.168-0.1c-1.126-3.033-2.598-5.83-4.105-8.379c-0.87-1.478-1.784-2.843-2.704-4.15
			c-0.944,0.544-5.285,2.98-7.662,3.217c-2.278,0.227-5.243-0.117-6.888-1.895c-1.611-1.742-1.623-4.547,0.352-6.035
			c2.741-2.065,8.621-0.128,11.127,1.636c0.136,0.096,1.413,1.225,2.332,2.06c-0.424-0.583-0.851-1.194-1.268-1.745
			c-1.561-2.073-3.119-3.875-4.512-5.46c-0.799-0.895-1.54-1.688-2.24-2.423c-1.205,0.05-6.061,0.191-8.24-0.677
			c-2.126-0.848-4.599-2.52-5.24-4.856c-0.627-2.288,0.655-4.783,3.093-5.193c3.385-0.569,7.71,3.858,9.121,6.579
			c0.122,0.235,1.606,4.132,1.543,4.135c0,0-0.059,0.003-0.072,0.003c0.688,0.694,1.418,1.446,2.199,2.283
			c1.43,1.557,3.031,3.331,4.644,5.378c1.617,2.042,3.316,4.306,4.891,6.851c1.582,2.55,3.116,5.313,4.328,8.364
			c0.013,0.035,0.023,0.072,0.037,0.107c-0.077-1.002-0.2-3.813-0.185-4.03c0.213-3.057,2.421-8.84,5.753-9.664
			c2.401-0.593,4.569,1.186,4.903,3.535C153.458,315.707,151.854,318.224,150.24,319.848z"/>
	</g>
</g>
<g id="Clock">
	<g>
		
			<circle style="fill:#263238;stroke:#263238;stroke-linecap:round;stroke-linejoin:round;stroke-miterlimit:10;" cx="259.946" cy="366.496" r="117.778"/>
		<g>
			<circle style="fill:#FFFFFF;" cx="259.946" cy="366.496" r="104.193"/>
			<path style="opacity:0.2;" d="M355.908,325.841c-73.837,85.812-156.844,99.547-180.371,101.741
				c18.933,26.117,49.685,43.108,84.409,43.108c57.544,0,104.193-46.649,104.193-104.193
				C364.139,352.072,361.207,338.333,355.908,325.841z"/>
		</g>
		<g>
			
				<line style="fill:none;stroke:#263238;stroke-width:5;stroke-linecap:round;stroke-linejoin:round;stroke-miterlimit:10;" x1="261.798" y1="366.296" x2="303.289" y2="366.296"/>
			
				<line style="fill:none;stroke:#263238;stroke-width:5;stroke-linecap:round;stroke-linejoin:round;stroke-miterlimit:10;" x1="259.946" y1="366.496" x2="259.946" y2="445.405"/>
			
				<circle style="fill:#FFFFFF;stroke:#263238;stroke-linecap:round;stroke-linejoin:round;stroke-miterlimit:10;" cx="259.946" cy="366.496" r="5.685"/>
		</g>
	</g>
</g>
<g id="Character_1_">
	<g>
		<path style="opacity:0.2;" d="M288.618,251.883c0,0-0.885,10.18-7.082,15.048c-6.196,4.869-8.852,6.196-8.852,6.196
			s2.213,11.95,2.213,23.458s-3.298,19.73-3.098,22.572c0.2,2.842,0.885,14.606,0.443,18.146
			c-0.443,3.541-1.328,12.835-5.311,15.933c-3.983,3.098-9.737-3.983-9.737-3.983s0.885,23.9,0.885,30.096
			c0,6.196-5.311,12.393-7.967,7.967c-2.656-4.426-2.213-13.72-2.213-18.146c0-4.426-0.443-47.8-1.328-60.193
			c-0.885-12.393-2.213-49.128-2.213-49.128l0.885-10.18C245.244,249.67,263.833,241.261,288.618,251.883"/>
		<g>
			<path style="fill:#92E3A9;stroke:#263238;stroke-linecap:round;stroke-linejoin:round;stroke-miterlimit:10;" d="
				M246.761,350.044c0,0,0,4.051-2.181,10.906c-2.181,6.855-3.116,19.631,0.935,21.5c4.051,1.87,9.66-3.739,9.66-7.79
				c0-4.051,0-6.232,0-9.036c0-2.804,1.246-7.167,0.935-10.283C255.797,352.225,250.188,348.486,246.761,350.044z"/>
			<g>
				<path style="fill:#FFFFFF;stroke:#263238;stroke-linecap:round;stroke-linejoin:round;stroke-miterlimit:10;" d="
					M284.775,208.267c0,0,1.246,14.022,2.804,17.449c1.558,3.428,14.645,26.174,14.645,26.174s-0.623,4.986,0.312,5.92
					c0.935,0.935,5.609,5.92,5.609,5.92s0.935,1.246,1.87,0.623c0.935-0.623,1.246-2.493,1.246-2.493s1.87,0.623,4.362,0.312
					c2.493-0.312,2.181-6.855,1.246-7.79c-0.935-0.935-10.906-6.544-10.906-6.544s-5.609-27.421-7.167-30.225
					c-1.558-2.804-2.181-7.478-2.181-7.478v-3.428L284.775,208.267z"/>
				
					<line style="fill:none;stroke:#263238;stroke-linecap:round;stroke-linejoin:round;stroke-miterlimit:10;" x1="311.261" y1="261.862" x2="308.145" y2="256.565"/>
			</g>
			<path style="fill:#FFFFFF;stroke:#263238;stroke-linecap:round;stroke-linejoin:round;stroke-miterlimit:10;" d="
				M233.674,221.977c0,0-14.645,15.58-14.645,22.123c0,6.543,2.493,11.841,9.036,23.37c6.544,11.529,10.594,22.435,10.594,22.435
				s-3.428,13.71-4.051,23.37c-0.623,9.66,12.775,42.065,12.775,42.065s4.051,3.739,5.297-0.935
				c1.246-4.674,1.87-48.921,2.181-53.283c0.312-4.362,1.246-14.957,1.246-14.957l1.246-27.109c0,0,19.007,1.246,24.616,0.935
				c5.609-0.312,8.413-12.152,9.036-13.399s0.623-2.804,0.623-2.804s2.181-5.297,2.804-9.66c0.623-4.362-7.478-7.478-8.413-8.102
				c-0.935-0.623-5.609-2.804-5.609-2.804L233.674,221.977z"/>
			<path style="fill:#92E3A9;stroke:#263238;stroke-linecap:round;stroke-linejoin:round;stroke-miterlimit:10;" d="
				M286.022,226.028c-0.935-0.623-5.609-2.804-5.609-2.804l-46.739-1.246c0,0-14.645,15.58-14.645,22.123
				c0,4.588,1.233,8.571,4.221,14.512c4.795-4.821,16.474-13.911,30.678-6.098c4.319,2.375,7.614,4.716,10.211,6.947
				c6.035,0.333,14.417,0.721,17.833,0.531c5.609-0.312,8.413-12.152,9.036-13.399c0.623-1.246,0.623-2.804,0.623-2.804
				s2.181-5.297,2.804-9.66C295.058,229.767,286.957,226.652,286.022,226.028z"/>
			<g>
				<path style="fill:none;stroke:#263238;stroke-linecap:round;stroke-linejoin:round;stroke-miterlimit:10;" d="M227.753,239.115
					c0,0,12.152-3.739,24.305-1.558"/>
				<path style="fill:none;stroke:#263238;stroke-linecap:round;stroke-linejoin:round;stroke-miterlimit:10;" d="M236.166,240.362
					c0,0,6.544-0.312,13.087,2.804"/>
				<path style="fill:none;stroke:#263238;stroke-linecap:round;stroke-linejoin:round;stroke-miterlimit:10;" d="M260.783,235.376
					c0,0,9.971-4.986,24.616,0"/>
			</g>
			<g>
				<path style="fill:#92E3A9;stroke:#263238;stroke-linecap:round;stroke-linejoin:round;stroke-miterlimit:10;" d="
					M250.267,162.864c0,0-23.233,1.303-23.885,2.171c-0.651,0.869-22.582,15.199-22.582,15.199l3.691,21.931l22.799-9.337
					c0,0-0.651,15.417-0.869,19.976c-0.217,4.56-1.954,7.383-0.651,8.468c1.303,1.086,7.383,3.257,7.383,3.257h44.078
					c0,0,4.126-3.691,4.343-4.994c0.217-1.303-1.737-5.863-1.737-7.165s0-2.389,0-2.389s4.777,3.04,9.988,2.389
					c5.211-0.651,8.034-3.474,8.034-3.474s-2.388-15.634-2.823-20.194c-0.434-4.56,1.52-18.456,0.217-18.891
					c-1.303-0.434-21.496-4.56-26.708-6.08C266.335,162.212,250.267,162.864,250.267,162.864z"/>
				<path style="fill:#FFFFFF;stroke:#263238;stroke-linecap:round;stroke-linejoin:round;stroke-miterlimit:10;" d="
					M257.106,179.149c7.375,0,13.354-5.395,13.354-12.051c0-1.307-0.238-2.563-0.664-3.741c-6.361-1.027-19.529-0.493-19.529-0.493
					s-2.459,0.138-5.793,0.354c-0.46,1.219-0.721,2.521-0.721,3.881C243.753,173.754,249.731,179.149,257.106,179.149z"/>
				<g>
					
						<line style="fill:none;stroke:#263238;stroke-linecap:round;stroke-linejoin:round;stroke-miterlimit:10;" x1="230.29" y1="192.829" x2="225.73" y2="176.543"/>
					
						<line style="fill:none;stroke:#263238;stroke-linecap:round;stroke-linejoin:round;stroke-miterlimit:10;" x1="230.073" y1="190.874" x2="223.342" y2="180.018"/>
					<polyline style="fill:none;stroke:#263238;stroke-linecap:round;stroke-linejoin:round;stroke-miterlimit:10;" points="
						282.837,209.982 286.745,197.388 288.917,184.577 					"/>
					<path style="fill:none;stroke:#263238;stroke-linecap:round;stroke-linejoin:round;stroke-miterlimit:10;" d="M287.831,194.131
						c0,0,3.04-6.297,4.994-11.074"/>
					<path style="fill:none;stroke:#263238;stroke-linecap:round;stroke-linejoin:round;stroke-miterlimit:10;" d="M255.695,224.313
						c0,0,7.383-1.737,14.331-5.863"/>
					<path style="fill:none;stroke:#263238;stroke-linecap:round;stroke-linejoin:round;stroke-miterlimit:10;" d="M263.295,220.405
						c0,0,4.126-3.04,9.12-7.165"/>
				</g>
			</g>
			<g>
				<path style="fill:#FFFFFF;stroke:#263238;stroke-linecap:round;stroke-linejoin:round;stroke-miterlimit:10;" d="
					M247.444,167.858c0,0,0.434-1.52,0.434-3.691c0-2.171-1.954-9.554-1.954-9.554s-9.771-0.434-10.423-1.737
					c-0.651-1.303,1.303-13.028,1.303-13.028s-2.389-3.257-2.389-4.343c0-1.086,2.823-1.303,4.126-2.171
					c1.303-0.869,3.691-2.171,3.691-3.257c0-1.086,3.691-3.908,3.691-3.908s3.474-3.908,11.508-2.606
					c8.034,1.303,13.68,8.251,14.114,14.982c0.434,6.731-4.994,13.68-5.428,16.285c-0.434,2.606,0.217,8.685,1.086,10.64"/>
				<polygon style="fill:#263238;stroke:#263238;stroke-linecap:round;stroke-linejoin:round;stroke-miterlimit:10;" points="
					245.924,154.613 250.651,154.207 246.73,157.802 				"/>
				<path style="fill:#263238;stroke:#263238;stroke-linecap:round;stroke-linejoin:round;stroke-miterlimit:10;" d="
					M244.621,127.254c0,0-3.474-8.251,3.908-12.16s18.891,2.606,27.142,10.205c8.251,7.6,13.245,24.102,11.508,28.01
					s-18.022,8.685-22.148,9.988c-4.126,1.303-9.771,3.257-10.205,1.737c-0.434-1.52-3.257-33.656-4.126-35.61
					C249.832,127.471,250.049,123.997,244.621,127.254z"/>
				<path style="fill:#263238;" d="M245.622,133.573c-0.412,0.8-1.048,1.292-1.421,1.1c-0.373-0.192-0.342-0.996,0.07-1.796
					c0.412-0.8,1.048-1.292,1.421-1.1C246.065,131.969,246.034,132.773,245.622,133.573z"/>
				<path style="fill:none;stroke:#263238;stroke-linecap:round;stroke-linejoin:round;stroke-miterlimit:10;" d="M237.89,142.887
					c0,0,1.52,1.086,3.691-0.217"/>
				<path style="fill:none;stroke:#263238;stroke-linecap:round;stroke-linejoin:round;stroke-miterlimit:10;" d="M244.838,129.642
					c0,0,2.389-1.954,3.257,1.303"/>
			</g>
			<g>
				<path style="fill:#FFFFFF;stroke:#263238;stroke-linecap:round;stroke-linejoin:round;stroke-miterlimit:10;" d="
					M204.017,181.972l-12.377-40.604c0,0-2.171-5.863-4.126-8.251s-4.994-6.297-6.514-7.165c-1.52-0.869-1.737,1.086-1.086,1.954
					c0.651,0.869,1.954,2.823,2.823,3.908c0.869,1.086,0.869,4.777,0.869,4.777s-4.56,5.428-2.823,7.165
					c1.737,1.737,6.297,5.428,6.297,5.428s5.428,41.256,5.646,44.73c0.217,3.474,3.257,4.126,3.257,4.126l10.205-2.388
					L204.017,181.972z"/>
				<g>
					<path style="fill:#FFFFFF;stroke:#263238;stroke-linecap:round;stroke-linejoin:round;stroke-miterlimit:10;" d="
						M183.172,134.853l-3.04,1.086c0,0-2.376,5.122-2.376,6.208c0,1.086,2.376,2.695,3.679,2.695s2.389-5.211,2.389-5.211
						L183.172,134.853z"/>
					<path style="fill:none;stroke:#263238;stroke-linecap:round;stroke-linejoin:round;stroke-miterlimit:10;" d="M178.234,140.829
						c0,0,2.635,2.036,4.431,2.036"/>
					<path style="fill:none;stroke:#263238;stroke-linecap:round;stroke-linejoin:round;stroke-miterlimit:10;" d="M179.432,138.195
						c0,0,0.958,2.276,3.833,2.755"/>
				</g>
				<path style="fill:#FFFFFF;stroke:#263238;stroke-linecap:round;stroke-linejoin:round;stroke-miterlimit:10;" d="
					M186.166,137.018c0,0-3.429-0.645-4.515,0.007c-1.086,0.651-4.343,2.389-4.343,3.04s1.52,1.303,2.606,0.651
					s1.737-0.869,1.737-0.869h1.303c0,0,0.434,3.908,4.777,4.343"/>
			</g>
			<g>
				<path style="fill:#92E3A9;stroke:#263238;stroke-linecap:round;stroke-linejoin:round;stroke-miterlimit:10;" d="
					M260.471,307.978c0,0,0,7.79,0,14.957c0,7.167-3.116,13.71-1.558,15.891c1.558,2.181,6.232,2.804,9.971-0.935
					c3.739-3.739,4.051-9.971,3.116-15.891c-0.935-5.92-2.804-13.399-2.804-13.399S262.34,302.681,260.471,307.978z"/>
				<g>
					<path style="fill:#FFFFFF;stroke:#263238;stroke-linecap:round;stroke-linejoin:round;stroke-miterlimit:10;" d="
						M283.217,259.992c0,0,0.312-10.283-2.804-16.515c-3.116-6.232-15.268-10.594-24.305-11.529
						c-9.036-0.935-10.906,5.609-11.529,10.283c-0.623,4.674,1.558,23.993,4.051,29.29c2.493,5.297,11.529,32.406,11.841,36.457
						c0.312,4.051,2.181,7.478,5.297,6.543c3.116-0.935,3.427-5.609,3.427-10.906c0-5.297,0.935-13.087,1.87-23.681
						c0.935-10.594,0.312-16.203,0.312-16.203S277.609,265.601,283.217,259.992z"/>
					<path style="fill:none;stroke:#263238;stroke-linecap:round;stroke-linejoin:round;stroke-miterlimit:10;" d="M271.377,263.732
						c0,0-1.87-14.645-9.036-21.812"/>
				</g>
			</g>
		</g>
	</g>
</g>
</svg>
