<svg width="286" height="120" viewBox="0 0 286 120" fill="none" xmlns="http://www.w3.org/2000/svg">
    <path fill-rule="evenodd" clip-rule="evenodd" d="M154.353 41.117H167.447L161.073 26.153L154.353 41.117ZM16.4813 23.7422C16.4813 22.0241 16.2477 20.65 15.7546 19.5904C15.2636 18.5552 14.1655 18.013 12.4234 18.013H11.8445V16.2921H18.7984C19.7779 16.2921 20.6214 16.4058 21.3171 16.6632C21.9836 16.9255 22.5342 17.3237 22.9358 17.8948C23.3431 18.4683 23.6333 19.2464 23.8103 20.1928C23.9819 21.166 24.0671 22.3395 24.0671 23.7422V34.6377L34.0905 22.3104C34.6995 21.511 35.3651 20.7676 36.0882 20.0187C36.8149 19.3023 37.5937 18.6726 38.4354 18.0981C39.3023 17.555 40.2009 17.0951 41.154 16.7772C42.1447 16.4663 43.1863 16.2921 44.3446 16.2921H48.429V18.2996C46.199 18.2996 44.2257 18.5847 42.434 19.1306C40.6684 19.6771 39.1307 20.7676 37.799 22.3675L29.1663 32.9159L42.5755 46.7036C43.3009 47.5096 44.0863 48.254 44.9518 48.9406C45.7926 49.6281 46.6307 50.2286 47.445 50.8025C48.2538 51.3483 49.0341 51.8055 49.7903 52.1456C50.5414 52.4926 51.2097 52.6951 51.7913 52.7811V54.1543C51.3524 54.2998 50.7771 54.446 50.0221 54.557C49.268 54.6746 48.429 54.7278 47.5591 54.7278C46.4543 54.7278 45.3871 54.6439 44.3127 54.4701C43.2146 54.2999 42.1125 53.9591 40.955 53.4339C39.7948 52.9245 38.5795 52.2082 37.3351 51.3483C36.1183 50.4602 34.7853 49.2804 33.3952 47.8491L24.0671 38.1946V54.1543H16.537L16.4813 23.7422ZM62.2444 16.2921H69.7747V46.6738C69.7747 48.4226 70.0077 49.7989 70.4999 50.8633C70.9909 51.8884 72.0902 52.4376 73.8329 52.4376H74.41V54.1543H67.457C66.4739 54.1543 65.6313 54.0403 64.9401 53.809C64.2727 53.5804 63.723 53.1792 63.3148 52.6048C62.9114 52.0377 62.6526 51.2614 62.478 50.3137C62.3329 49.3427 62.2444 48.1363 62.2444 46.7036V16.2921ZM262.54 16.2921H270.065V46.6738C270.065 48.4226 270.331 49.7989 270.793 50.8633C271.283 51.8884 272.384 52.4376 274.156 52.4376H274.731V54.1543H267.781C266.766 54.1543 265.925 54.0403 265.232 53.809C264.565 53.5804 264.016 53.1792 263.608 52.6048C263.202 52.0377 262.942 51.2614 262.769 50.3137C262.625 49.3427 262.54 48.1363 262.54 46.6738V35.7841H246.897V54.1543H239.365V23.7422C239.365 22.0241 239.108 20.65 238.644 19.5904C238.146 18.5552 237.048 18.013 235.313 18.013H234.7V16.2921H241.682C242.665 16.2921 243.507 16.4058 244.205 16.6632C244.865 16.9255 245.423 17.3237 245.825 17.8948C246.232 18.4683 246.489 19.2464 246.665 20.1928C246.812 21.166 246.897 22.3395 246.897 23.7422V33.2037H262.54V16.2921ZM222.742 28.5018C221.987 25.0306 220.653 22.3675 218.713 20.5074C216.741 18.6419 214.169 17.7218 210.981 17.7218C209.184 17.7218 207.533 18.013 205.97 18.5847C204.43 19.1558 203.072 20.1314 201.912 21.5362C200.755 22.9422 199.858 24.7731 199.191 27.0976C198.553 29.4194 198.202 32.315 198.202 35.7841C198.202 37.9621 198.439 40.0796 198.901 42.1476C199.364 44.1849 200.121 45.9872 201.132 47.5646C202.176 49.1095 203.48 50.3736 205.069 51.3173C206.697 52.2343 208.635 52.7224 210.953 52.7224C213.615 52.7224 216.102 52.0067 218.399 50.6329C220.653 49.2269 222.507 47.1896 223.898 44.5292L225.923 46.0769C224.101 49.2269 221.872 51.5784 219.263 53.0665C216.628 54.557 213.299 55.3013 209.241 55.3013C206.172 55.3013 203.45 54.7892 201.077 53.809C198.697 52.8118 196.7 51.4292 195.078 49.6858C193.455 47.9099 192.236 45.8447 191.369 43.495C190.53 41.117 190.096 38.5347 190.096 35.7841C190.096 32.8879 190.589 30.1938 191.545 27.6769C192.53 25.1825 193.859 22.996 195.54 21.1408C197.249 19.2704 199.28 17.8133 201.596 16.7508C203.941 15.6894 206.488 15.1466 209.241 15.1466C212.864 15.1466 215.789 15.601 218.017 16.5514C220.246 17.4969 221.902 18.5552 222.971 19.7929C223.756 20.794 224.19 22.0511 224.305 23.6307C224.421 25.2069 224.479 26.8122 224.479 28.5018H222.742ZM178.076 46.9042C178.771 48.5974 179.61 49.9445 180.626 50.917C181.611 51.9219 182.764 52.4926 184.102 52.6395V54.0749C183.784 54.1543 183.348 54.2157 182.797 54.2688C182.217 54.3305 181.723 54.3558 181.317 54.3558C180.395 54.3558 179.381 54.2688 178.306 54.0971C177.264 53.9266 176.221 53.5804 175.179 53.0665C174.165 52.5525 173.208 51.8055 172.281 50.8323C171.387 49.8584 170.574 48.5676 169.876 46.9042L168.545 43.6971H153.134L148.39 54.1543H145.371L162.466 16.2921H165.069L178.076 46.9042Z" fill="#5C5C5B"></path>
    <path d="M261.038 76.7528C261.038 76.2385 260.783 75.9385 260.274 75.8528C259.594 75.8528 258.788 76.3242 257.854 77.267C257.132 77.9527 256.315 78.9064 255.402 80.128C254.49 81.3495 253.8 82.4102 253.333 83.3102C254.734 83.3102 256.368 82.4959 258.236 80.8671C260.104 79.2383 261.038 77.8673 261.038 76.7528ZM267.532 82.9886C267.532 84.4888 265.983 86.503 262.884 89.0314C259.573 91.7319 256.601 93.082 253.969 93.082C252.654 93.082 251.497 92.578 250.499 91.5711C249.502 90.5639 249.003 89.332 249.003 87.8747C249.003 86.0319 249.555 84.0174 250.659 81.8315C251.593 79.9459 252.654 78.4241 253.842 77.267C255.54 75.4668 257.026 74.1921 258.3 73.442C259.573 72.6919 260.634 72.3168 261.484 72.3168C262.29 72.3168 262.948 72.5739 263.457 73.0882C263.967 73.6025 264.221 74.2243 264.221 74.9528C264.221 76.3242 263.5 77.9743 262.056 79.9027C260.995 81.3601 259.764 82.6673 258.363 83.8247C257.726 84.4672 256.814 85.0888 255.625 85.6888C254.776 86.1176 253.842 86.503 252.824 86.8458C252.824 87.8746 253.047 88.6354 253.492 89.1281C253.938 89.6211 254.564 89.8679 255.371 89.8679C256.687 89.8679 258.31 89.2247 260.242 87.9388C262.173 86.6531 263.882 85.1104 265.368 83.3102C266.047 82.4959 266.556 82.0886 266.896 82.0886C267.32 82.0886 267.532 82.3889 267.532 82.9886Z" fill="#278D6D"></path>
    <path d="M233.594 74.2493C233.594 74.8921 233.318 75.5562 232.766 76.2422C231.62 77.6138 230.134 80.2389 228.309 84.1174C226.484 87.9962 225.443 90.6642 225.189 92.1216C224.934 93.5789 224.361 94.2646 223.469 94.1789C223.13 94.1789 222.833 93.943 222.578 93.4716C222.323 92.9999 222.196 92.4857 222.196 91.9286C222.196 89.7855 223.172 86.8282 225.125 83.0567C226.781 79.8426 228.648 76.885 230.728 74.1851C230.94 73.928 231.206 73.6706 231.524 73.4137C231.843 73.1563 232.193 73.0277 232.575 73.0277C233.254 73.1138 233.594 73.5207 233.594 74.2493Z" fill="#278D6D"></path>
    <path d="M240.152 62.163C240.152 63.1918 239.632 64.2528 238.592 65.3455C237.552 66.4384 236.65 66.9846 235.886 66.9846C234.995 66.9846 234.549 66.449 234.549 65.3777C234.549 64.392 235.058 63.3416 236.077 62.2274C237.096 61.1129 237.987 60.556 238.752 60.556C239.685 60.556 240.152 61.0916 240.152 62.163Z" fill="#278D6D"></path>
    <path d="M226.59 53.5485C226.59 53.8914 226.462 54.3628 226.207 54.9627C225.189 56.8915 223.714 59.1631 221.782 61.7776C219.851 64.392 217.951 66.9205 216.083 69.3635C214.003 72.1922 212.369 74.6565 211.18 76.7567C209.397 79.9283 208.06 82.3926 207.169 84.1496C205.683 87.0212 204.834 89.0998 204.622 90.3858C207.211 89.7001 209.822 89.0141 212.454 88.3287C214.152 87.9427 215.489 87.7497 216.466 87.7497C217.314 87.7497 217.973 87.9318 218.439 88.2962C218.906 88.6609 219.14 89.0998 219.14 89.6144C219.14 90.0855 218.917 90.5034 218.471 90.8681C218.025 91.2319 217.42 91.4143 216.656 91.4143C214.025 91.4143 211.064 91.9927 207.774 93.1501C204.484 94.3072 202.436 94.8858 201.629 94.8858C200.483 94.8858 199.91 94.243 199.91 92.9574C199.91 91.7571 200.292 90.2144 201.056 88.3072C201.82 86.3997 202.86 84.2247 204.176 81.7923C205.832 78.4068 208.739 73.6815 212.9 67.6061C216.38 62.5596 219.819 57.8453 223.215 53.4841C223.809 52.627 224.531 52.1984 225.38 52.1984C226.187 52.1984 226.59 52.6486 226.59 53.5485Z" fill="#278D6D"></path>
    <path d="M237.948 85.1559C236.874 87.5747 235.686 90.7289 234.308 94.5895C232.692 99.1184 231.959 102.299 231.608 104.053C231.51 104.548 231.37 105.27 231.271 105.944C231.133 106.872 231.13 107.544 230.757 108.265C230.336 109.077 229.583 109.447 229.017 109.198C228.481 108.963 228.141 108.361 227.958 107.856C227.029 105.298 228.935 100.316 229.737 97.8361C230.667 94.9639 232.041 91.2839 234.124 86.5282C234.969 84.5988 236.032 82.2816 236.159 81.7245C235.445 82.3838 234.867 82.8637 234.613 82.8637C233.934 82.8637 233.594 82.6281 233.594 82.157C233.594 81.5996 234.019 80.8282 234.867 79.8426C235.716 78.8566 236.841 77.8281 238.242 76.7567C240.195 73.0706 241.661 70.3497 242.635 68.5921C244.25 65.6786 245.78 62.7231 247.499 60.002C248.884 57.8106 251.136 54.5254 253.613 52.5176C255.107 51.3061 256.514 50.5861 258.343 50.7724C259.374 50.8772 260.05 51.3106 260.605 52.0462C261.45 53.168 261.051 54.3214 260.391 54.9275C259.553 55.6964 258.519 55.4399 257.566 55.0123C255.681 54.1655 254.017 56.2377 252.973 57.6899C251.752 59.3883 250.374 61.6256 249.194 63.6416C246.703 67.8961 244.7 71.1366 242.96 74.6082C244.063 74.0936 244.904 73.7487 245.883 73.4137C247.408 72.8919 248.748 72.6423 249.894 72.6423C250.871 72.6423 251.709 72.8782 252.41 73.349C253.11 73.8207 253.503 74.3994 253.587 75.0854C253.587 75.4708 253.322 75.8564 252.792 76.2421C252.261 76.6281 251.762 76.8208 251.295 76.8208C251.125 76.8208 250.595 76.5853 249.703 76.1136C249.237 75.8564 248.748 75.7279 248.239 75.7279C247.432 75.7279 246.138 76.0172 244.354 76.5959C242.572 77.1743 241.807 77.8004 240.873 78.6575C240.125 80.2319 239.005 82.774 237.948 85.1559Z" fill="#278D6D"></path>
    <path fill-rule="evenodd" clip-rule="evenodd" d="M110.707 48.367H110.707L110.687 48.3394H110.687L110.68 48.3303L110.66 48.3023H110.66L110.654 48.2932H110.653L110.627 48.2564H110.627L110.621 48.247H110.62L110.614 48.2379H110.614L110.607 48.2287L110.601 48.2196H110.6L110.594 48.2105L110.587 48.2011H110.587L110.581 48.192H110.58L110.574 48.1828H110.574L110.567 48.1734H110.567L110.56 48.1643L110.554 48.1552H110.553L110.547 48.1458L110.54 48.1366H110.54L110.534 48.1278H110.533L110.527 48.1184L110.52 48.1093H110.52L110.5 48.0819L110.493 48.0728H110.493L110.486 48.0634L110.48 48.0543H110.479L110.466 48.036H110.466L110.46 48.0269L110.439 47.9999H110.439L110.433 47.9904H110.432L110.419 47.9725H110.419L110.406 47.9543H110.405L110.399 47.9449L110.385 47.9269H110.385L110.372 47.9087H110.371L110.358 47.8905H110.357L110.344 47.8722H110.344L110.303 47.8181C110.218 47.7063 110.133 47.5959 110.047 47.4877C109.903 47.3075 109.758 47.1318 109.611 46.9604H109.611C109.394 46.7094 109.172 46.4662 108.94 46.2279L108.908 46.1951H108.908L108.748 46.0337H108.747L108.617 45.9049H108.616L108.583 45.8729L108.55 45.8413H108.55L108.517 45.8091H108.517L108.483 45.7769H108.483L108.45 45.745H108.45L108.416 45.7134L108.382 45.6815H108.381L108.348 45.6495H108.347L108.321 45.6246H108.321L108.294 45.6003H108.294L108.268 45.5754H108.267L108.241 45.5511H108.241L108.214 45.5268H108.214L108.161 45.4778H108.161L108.054 45.3809H108.053L108 45.3325H108L107.973 45.3085L107.946 45.2845L107.893 45.2365H107.892L107.785 45.1414H107.785L107.622 45.0003H107.621L107.567 44.9535H107.567L107.513 44.9073H107.512C107.211 44.6523 106.902 44.4074 106.577 44.1733C105.911 43.6931 105.191 43.2503 104.501 42.8397C104.382 42.7682 104.262 42.6983 104.142 42.6293L104.107 42.6087H104.107L104.071 42.5877H104.07L104.035 42.567H104.035L103.963 42.526H103.962L103.927 42.5053L103.891 42.485H103.89L103.855 42.4646H103.854L103.818 42.4439H103.818L103.746 42.4029H103.746L103.71 42.3828H103.709L103.674 42.3625H103.673L103.638 42.3424H103.637L103.601 42.3221H103.601L103.565 42.302H103.564L103.529 42.2816H103.528L103.492 42.2616H103.492L103.456 42.2418H103.456L103.42 42.2218H103.419L103.383 42.2017H103.383L103.347 42.1816H103.346L103.31 42.1619H103.31L103.274 42.1418H103.274L103.238 42.1221H103.237L103.201 42.102H103.2L103.165 42.0823H103.164L103.128 42.0628H103.128L103.091 42.043H103.091L103.019 42.0035H103.018L102.945 41.964H102.945L102.909 41.9446H102.908L102.872 41.9251H102.872L102.836 41.9054H102.835L102.799 41.8859H102.799L102.762 41.8665H102.762L102.689 41.8276H102.689L102.616 41.7887H102.615L102.579 41.7695H102.578L102.395 41.6729L102.174 41.5574C101.931 41.4309 101.687 41.3063 101.442 41.1826H101.442L101.168 41.0431H101.167L100.525 40.72H100.525L100.204 40.5586H100.203L100.066 40.4896H100.065L99.9279 40.4206L99.8822 40.3978H99.8819L99.7446 40.3285H99.744L99.6982 40.3058L99.6528 40.2824H99.6522L99.6067 40.2593H99.6061L99.3316 40.121H99.331L99.2858 40.0979H99.2852L99.2395 40.0745H99.2392L99.1835 40.0465L99.1624 40.0356L99.1278 40.0182L99.0853 39.9967L98.9607 39.9331L98.9318 39.9185L98.905 39.9049L98.8553 39.8793L98.473 39.683L98.4625 39.6775L98.4074 39.6489L98.3969 39.6435L98.2451 39.5645L98.2424 39.5632C97.4001 39.1241 96.5747 38.6739 95.7538 38.1986C95.016 37.7712 93.7932 37.1141 93.2052 36.526L93.2149 36.5354C90.1796 33.8863 86.4368 28.8267 84.755 24.5999C84.3829 23.665 84.0237 22.5945 83.9407 21.5818C83.9328 21.5037 83.9259 21.4271 83.9223 21.3514C83.9223 22.3626 83.9211 27.4745 83.9199 28.4851C83.9178 30.5315 83.9151 32.5779 83.9226 34.6246C83.9298 36.3765 83.9286 38.06 84.0286 39.3654C84.0406 39.521 84.0541 39.6787 84.0698 39.8386L84.0776 39.9185H84.0779L84.1129 40.2413H84.1132L84.142 40.4857H84.1424L84.1743 40.7316H84.1746C84.1968 40.8957 84.2209 41.061 84.2474 41.2264C84.3516 41.888 84.4861 42.5524 84.6511 43.1834H84.6514C84.7685 43.6305 84.901 44.0603 85.0488 44.4609C86.6789 48.8697 90.1353 51.1903 93.9946 53.409H93.9952C94.2131 53.5348 94.4332 53.6601 94.6538 53.785H94.6541L94.8745 53.9105H94.8751L95.0963 54.036H95.0966L95.3188 54.1615H95.3191L95.5419 54.2874L95.9886 54.54H95.9889L96.2126 54.667H96.2132L96.4368 54.7949H96.4371L96.5834 54.8782H96.584L96.7306 54.9615H96.7309L96.8776 55.0445H96.8781L97.0245 55.1275H97.0251L97.1717 55.2101H97.172L97.3186 55.2925H97.3192L97.9071 55.6201H97.9077L98.3481 55.8639H98.3487L98.6422 56.0259H98.6425C99.1802 56.3219 99.7157 56.6158 100.245 56.9088L100.963 57.3085L101.389 57.5486H101.39C101.579 57.6553 101.766 57.762 101.952 57.869H101.952C102.324 58.0826 102.692 58.2975 103.052 58.5142C103.188 58.5951 103.322 58.6768 103.455 58.758H103.455L103.72 58.9218H103.72L103.852 59.0035H103.852C104.026 59.113 104.2 59.2233 104.371 59.3339L104.498 59.4172H104.499L104.751 59.5841H104.752L104.877 59.6679H104.877L105.001 59.7521H105.001L105.125 59.8366H105.125L105.247 59.9214H105.248L105.369 60.0062H105.369L105.39 60.0214H105.391L105.412 60.0363L105.433 60.0515H105.434L105.455 60.0667L105.497 60.0971H105.498L105.519 60.1126H105.519L105.54 60.1281H105.541L105.562 60.1436H105.562L105.583 60.1588L105.626 60.1901L105.648 60.2059H105.648L105.691 60.2372L105.734 60.2691H105.735L105.777 60.3013H105.778L105.842 60.3494H105.843L105.907 60.3983L105.929 60.4144L105.994 60.4636H105.994L106.015 60.4801H106.016L106.08 60.5299H106.081L106.145 60.5801H106.145L106.188 60.6138H106.188L106.232 60.6475H106.232L106.275 60.6813H106.275L106.296 60.6983H106.297L106.425 60.8007L106.446 60.818H106.447L106.489 60.8524H106.49L106.532 60.8867H106.532L106.553 60.9044L106.617 60.956H106.617L106.744 61.0603C107.22 61.4551 107.686 61.9007 108.13 62.3863H108.13C108.2 62.4626 108.27 62.541 108.338 62.6198H108.338C108.477 62.7769 108.612 62.9386 108.744 63.1036H108.745L108.81 63.1863H108.81L108.876 63.2696H108.876L108.941 63.3535H108.941L109.07 63.5234H109.07C109.134 63.6085 109.197 63.6945 109.259 63.7817L109.32 63.8689H109.321C109.423 64.0148 109.523 64.1625 109.621 64.3124H109.621L109.679 64.4026H109.679C109.737 64.4932 109.794 64.5844 109.85 64.6759H109.85L109.96 64.8604H109.96L110.014 64.9534L110.068 65.0467L110.172 65.2345H110.172L110.274 65.4236H110.274L110.323 65.519H110.324L110.372 65.6144H110.372L110.42 65.7102H110.42L110.467 65.8065H110.468L110.514 65.9032H110.514L110.559 66.0004L110.604 66.0974L110.648 66.1947H110.648L110.691 66.2928H110.691L110.733 66.3904V63.9744V48.4047L110.707 48.367Z" fill="#278D6D"></path>
    <path fill-rule="evenodd" clip-rule="evenodd" d="M104.085 34.0362C102.856 32.9019 101.455 31.9393 99.9059 31.3105C98.8623 30.8877 97.7584 30.5665 96.6277 30.5272C95.817 30.499 94.96 30.6038 94.2239 30.9069C93.5785 31.1728 93.0939 31.5658 92.6784 32.1767C92.3699 32.6311 92.1854 33.1709 92.1324 33.7195C92.1212 33.845 92.1152 33.973 92.1167 34.1006C92.1565 34.93 92.5162 35.8364 93.2053 36.526L93.2149 36.5354C90.1796 33.8863 86.4368 28.8267 84.755 24.5999C84.3799 23.658 84.0183 22.579 83.9389 21.5593C83.8759 20.7515 83.9714 19.9755 84.2369 19.199C84.4566 18.5586 84.7541 18.0039 85.1144 17.5246C85.4618 17.0608 85.8817 16.6562 86.348 16.3161C88.1419 15.0165 90.7133 14.6016 92.875 14.5858C96.5196 14.5749 100.48 15.7891 103.054 17.7535C105.224 19.3637 107.011 21.5648 108.212 24.2999C109.036 26.1801 109.385 28.0766 109.454 30.1212C109.484 30.9777 109.473 31.8369 109.476 32.694L109.475 40.9784C108.874 39.9808 107.948 38.4408 107.152 37.4415C106.192 36.2373 105.216 35.0802 104.085 34.0362Z" fill="#1A7A5C"></path>
    <path fill-rule="evenodd" clip-rule="evenodd" d="M131.022 8.79254C131.022 10.876 131.528 18.8376 130.685 22.576C130.172 24.8513 129.205 26.6974 127.691 28.4775C125.53 31.0184 122.528 32.7791 119.429 34.5267C116.487 36.185 113.86 37.8077 112.009 40.9787V34.2295C112.008 33.2441 112.007 32.2986 112.008 31.4916C112.011 30.1163 112.054 28.8602 112.29 27.4976C112.434 26.6688 112.651 25.8485 113.023 24.8981C113.422 23.8772 113.82 23.0225 114.447 22.2818C115.607 20.9129 116.749 19.9029 118.064 19.0361C122.552 16.0776 127.441 14.3685 131.022 8.79254Z" fill="#278D6D"></path>
    <path fill-rule="evenodd" clip-rule="evenodd" d="M110.733 66.391V63.9744V48.4044C110.874 48.2063 111.017 48.0108 111.163 47.8181C111.768 47.0206 112.388 46.3292 113.119 45.6496C113.688 45.1225 114.259 44.6271 114.889 44.1733C115.555 43.6931 116.274 43.2503 116.965 42.8394C117.727 42.3859 118.506 41.9665 119.292 41.5574C120.266 41.0535 121.248 40.5687 122.227 40.0745C123.873 39.2432 125.442 38.3913 127.017 37.4181C128.985 36.2036 132.234 33.9952 134.776 30.5725C135.911 29.0431 136.894 27.2527 137.544 25.4521C137.544 28.5094 137.555 31.5673 137.543 34.6246C137.537 36.3768 137.538 38.06 137.438 39.3654C137.31 41.0243 136.975 42.954 136.417 44.4612C134.449 49.7852 129.817 52.0644 125.029 54.795C121.899 56.5797 118.686 58.1893 116.097 60.0062C115.642 60.3254 115.17 60.6886 114.722 61.0603C113.12 62.3897 111.621 64.2945 110.733 66.391Z" fill="#278D6D"></path>
</svg>