<svg width="174" height="184" viewBox="0 0 174 184" fill="none" xmlns="http://www.w3.org/2000/svg">
<path fill-rule="evenodd" clip-rule="evenodd" d="M83.0243 102.667C81.0849 99.4979 78.1158 94.5994 75.5566 91.4204C72.3975 87.4916 69.3685 83.9229 65.7096 80.5839C62.0307 77.2149 57.5321 74.0157 52.2837 71.9064C47.995 70.1869 43.8763 69.1972 39.7676 69.4272C37.4883 69.5571 34.8191 70.077 32.8297 71.1866C32.2999 71.4865 31.75 71.8465 31.2102 72.2964C30.4604 72.9162 29.7207 73.6959 29.0709 74.6656C28.1112 76.0951 27.4614 77.8647 27.3114 79.5742C27.2714 79.9741 27.2614 80.3839 27.2614 80.7838C27.3914 83.423 28.541 86.3121 30.7603 88.5014C32.6498 90.3708 36.5786 92.4702 38.9478 93.8298C42.6167 95.9292 46.3156 97.8785 50.1444 99.798C53.2834 101.367 56.4424 102.907 59.5715 104.516C62.0907 105.816 64.5999 107.146 67.0392 108.595C69.2585 109.895 71.5678 111.304 73.7071 112.834C75.7365 114.284 77.5759 115.853 79.3954 117.532C81.7446 119.692 83.734 121.891 85.6834 124.43C86.1533 125.05 86.6131 125.67 87.063 126.3V175.835V183.522C84.2039 176.854 79.3954 170.796 74.247 166.567C72.8074 165.378 71.2879 164.228 69.8283 163.209C61.5109 157.43 51.194 152.302 41.1371 146.633C25.7619 137.946 10.8765 130.688 4.5584 113.754C2.76895 108.955 1.68929 102.817 1.27941 97.5386C0.95951 93.3799 0.959514 88.0315 0.93952 82.4532C0.909529 75.9452 0.919524 69.4272 0.929521 62.9192C0.929521 59.8901 0.93952 44.3551 0.93952 39.8965C0.879539 37.7071 1.19944 35.5478 1.94921 33.3785C5.41814 23.3415 14.9652 19.9724 24.7622 18.9527C37.6782 17.6131 52.9435 21.632 62.4006 28.7798C69.3685 33.8982 75.1067 40.9061 78.9655 49.6034C80.1751 52.3426 81.1248 55.2517 81.7946 58.3207C83.1742 64.6088 83.0043 70.0071 83.0243 76.3152V102.667Z" fill="#016836"/>
<path fill-rule="evenodd" clip-rule="evenodd" d="M87.063 183.522V175.835V126.3C87.5128 125.67 87.9727 125.05 88.4426 124.43C90.392 121.891 92.3814 119.692 94.7206 117.533C96.5501 115.853 98.3895 114.284 100.409 112.834C102.548 111.305 104.858 109.895 107.077 108.596C109.526 107.146 112.035 105.816 114.555 104.517C117.684 102.907 120.843 101.368 123.982 99.7982C129.27 97.149 134.308 94.4399 139.377 91.3408C145.695 87.482 156.132 80.4541 164.299 69.5675C167.938 64.699 171.097 59.0007 173.186 53.2725C173.186 62.9995 173.226 72.7264 173.186 82.4534C173.166 88.0317 173.166 93.3801 172.847 97.5389C172.437 102.817 171.357 108.955 169.568 113.754C163.25 130.689 148.364 137.946 132.989 146.634C122.932 152.302 112.605 157.431 104.288 163.209C102.828 164.229 101.319 165.378 99.879 166.568C94.7306 170.796 89.9121 176.854 87.063 183.522Z" fill="#016836"/>
<path fill-rule="evenodd" clip-rule="evenodd" d="M153.922 0.178711C153.922 6.81667 155.592 32.149 152.803 44.0353C151.113 51.2731 147.914 57.1513 142.916 62.8196C135.778 70.8971 125.861 76.5054 115.624 82.0637C105.897 87.342 97.2199 92.5005 91.1118 102.587V81.114C91.1018 77.985 91.1018 74.9757 91.1018 72.4065C91.1118 68.0278 91.2517 64.0291 92.0415 59.7004C92.5113 57.0612 93.2311 54.452 94.4607 51.4229C95.7803 48.1739 97.0899 45.455 99.1593 43.1057C102.998 38.747 106.767 35.5279 111.116 32.7788C125.941 23.3617 142.086 17.9232 153.922 0.178711Z" fill="#016836"/>
</svg>
