<svg width="768" height="768" viewBox="0 0 768 768" fill="none" xmlns="http://www.w3.org/2000/svg">
<rect width="768" height="768" rx="384" fill="white"/>
<path fill-rule="evenodd" clip-rule="evenodd" d="M383.813 457.944L383.672 457.764L383.626 457.697L383.486 457.518H383.462L383.439 457.45L383.229 457.204L383.182 457.136L383.135 457.069L383.088 457.002L383.042 456.934L382.995 456.89L382.948 456.822L382.902 456.755L382.855 456.688L382.808 456.62L382.761 456.553L382.715 456.508L382.668 456.441L382.621 456.374H382.598L382.551 456.306L382.504 456.239L382.458 456.194L382.317 455.992L382.271 455.925L382.224 455.88L382.177 455.813L382.084 455.678L382.037 455.634L381.874 455.432L381.827 455.364L381.733 455.252L381.64 455.118L381.593 455.05L381.5 454.938L381.383 454.804L381.289 454.692L381.196 454.557L380.892 454.198C380.285 453.413 379.678 452.673 379.047 451.933C378.019 450.7 376.967 449.488 375.916 448.322C374.351 446.595 372.739 444.913 371.08 443.298H371.057L370.847 443.074L369.678 441.953L368.744 441.078L368.51 440.854L368.253 440.63L368.02 440.428L367.786 440.203L367.529 439.979L367.295 439.755L367.038 439.553L366.805 439.329L366.618 439.149L366.408 438.992L366.221 438.813L366.034 438.656L365.847 438.477L365.45 438.14L364.679 437.49L364.305 437.153L364.095 436.974L363.908 436.817L363.511 436.503L362.74 435.83L361.572 434.866L361.175 434.552L360.777 434.238C358.605 432.488 356.385 430.806 354.026 429.214C349.236 425.917 344.05 422.867 339.074 420.064C338.209 419.57 337.345 419.099 336.481 418.628L336.224 418.471L335.967 418.337L335.71 418.202L335.196 417.91L334.939 417.776H334.915L334.658 417.619L334.401 417.484L334.144 417.35L333.63 417.081L333.373 416.924H333.35L333.093 416.789L332.836 416.655L332.579 416.52L332.322 416.385L332.065 416.228L331.785 416.094L331.528 415.959L331.271 415.825L331.014 415.69L330.757 415.556H330.733L330.476 415.421L330.22 415.286L329.963 415.152L329.706 415.017H329.682L329.425 414.86L329.168 414.726L328.911 414.591L328.374 414.322L327.86 414.053L327.58 413.918L327.323 413.784L327.066 413.649L326.785 413.515L326.528 413.38L326.014 413.133H325.991L325.477 412.864L325.22 412.73H325.197L323.888 412.057L322.276 411.272C320.548 410.397 318.772 409.545 317.02 408.693L315.034 407.751L310.408 405.53L308.095 404.431H308.072L307.091 403.961L306.11 403.49H306.086L305.759 403.333L304.778 402.839L304.451 402.682L304.124 402.525H304.1L303.773 402.368L301.788 401.426L301.461 401.269L301.133 401.112L300.736 400.91L300.573 400.843L300.316 400.731L300.012 400.574L299.124 400.148L298.914 400.036L298.727 399.946L298.353 399.767L295.597 398.421L295.526 398.376L295.129 398.197L295.059 398.152L293.961 397.614L293.938 397.591C287.864 394.586 281.93 391.513 275.996 388.239C270.692 385.323 261.861 380.815 257.633 376.778L257.703 376.846C235.812 358.679 208.829 324.006 196.704 295.03C194.017 288.616 191.424 281.282 190.84 274.329C190.77 273.791 190.723 273.275 190.7 272.759C190.7 279.689 190.7 314.721 190.676 321.651C190.653 335.691 190.653 349.708 190.7 363.748C190.747 375.747 190.747 387.297 191.471 396.245C191.541 397.322 191.658 398.398 191.775 399.497L191.821 400.036L192.078 402.256L192.288 403.916L192.522 405.62C192.686 406.742 192.849 407.863 193.036 409.007C193.784 413.537 194.765 418.09 195.956 422.418C196.797 425.491 197.755 428.429 198.83 431.165C210.581 461.398 235.485 477.299 263.31 492.527H263.333C264.899 493.379 266.487 494.231 268.076 495.106L269.664 495.958L271.253 496.811H271.276L272.865 497.685L274.477 498.538L277.701 500.264L279.313 501.139L280.925 502.014L281.976 502.597L283.051 503.158L284.102 503.741L285.154 504.301H285.177L286.228 504.862L287.28 505.423L291.532 507.666L294.709 509.348L296.835 510.447C300.713 512.488 304.568 514.506 308.376 516.502L313.562 519.261L316.646 520.898C318.001 521.615 319.356 522.356 320.688 523.096C323.374 524.554 326.014 526.034 328.631 527.514C329.589 528.075 330.57 528.635 331.528 529.196L333.444 530.317L334.378 530.878C335.64 531.618 336.901 532.381 338.116 533.143L339.05 533.704L340.873 534.848L341.784 535.431L342.672 535.992L343.559 536.575L344.447 537.158L345.335 537.741L345.475 537.853L345.639 537.943L345.779 538.055H345.802L345.942 538.167L346.246 538.369L346.41 538.481L346.573 538.571L346.713 538.683L346.877 538.795L347.181 538.997L347.344 539.109L347.648 539.333L347.952 539.535L348.279 539.759L348.746 540.096L349.213 540.432L349.353 540.544L349.82 540.881H349.844L349.984 540.993L350.451 541.329L350.919 541.688L351.246 541.912L351.549 542.137L351.853 542.361L352.017 542.496L352.951 543.191L353.091 543.303L353.395 543.55L353.722 543.774L353.862 543.909L354.329 544.245L355.241 544.963C358.675 547.676 362.039 550.726 365.24 554.068C365.73 554.584 366.244 555.122 366.735 555.661C367.739 556.737 368.697 557.836 369.655 558.98L370.146 559.541L370.613 560.124L371.08 560.684L372.015 561.851C372.459 562.434 372.926 563.017 373.37 563.622L373.814 564.228C374.561 565.215 375.285 566.246 375.986 567.256L376.407 567.884C376.827 568.512 377.224 569.117 377.622 569.767L378.416 571.023L378.813 571.651L379.21 572.302L379.958 573.58L380.682 574.881L381.056 575.531L381.406 576.182L381.733 576.855H381.757L382.084 577.505L382.411 578.178L382.738 578.828L383.065 579.501L383.392 580.174L383.696 580.847L384 581.52V564.946V458.213L383.813 457.944Z" fill="url(#paint0_linear_1318_1234)"/>
<path fill-rule="evenodd" clip-rule="evenodd" d="M336.06 359.711C327.206 351.929 317.113 345.335 305.946 341.029C298.423 338.136 290.457 335.915 282.303 335.646C276.463 335.467 270.272 336.184 264.968 338.27C260.319 340.087 256.815 342.778 253.825 346.972C251.605 350.067 250.273 353.79 249.9 357.536C249.806 358.41 249.76 359.285 249.783 360.16C250.063 365.834 252.656 372.046 257.633 376.778L257.703 376.846C235.812 358.679 208.829 324.006 196.704 295.03C193.994 288.571 191.4 281.17 190.816 274.172C190.373 268.633 191.05 263.317 192.966 258.002C194.554 253.606 196.704 249.816 199.297 246.519C201.797 243.334 204.834 240.576 208.175 238.243C221.117 229.317 239.667 226.491 255.25 226.379C281.532 226.289 310.081 234.632 328.631 248.089C344.283 259.123 357.156 274.217 365.823 292.967C371.757 305.862 374.281 318.848 374.771 332.865C374.981 338.741 374.911 344.64 374.935 350.516V407.302C370.589 400.462 363.908 389.898 358.184 383.058C351.245 374.805 344.237 366.865 336.06 359.711Z" fill="url(#paint1_linear_1318_1234)"/>
<path fill-rule="evenodd" clip-rule="evenodd" d="M383.999 581.52V564.946V458.213C385.004 456.845 386.055 455.522 387.106 454.198C391.452 448.726 395.937 443.971 401.194 439.329C405.305 435.718 409.417 432.309 413.973 429.214C418.762 425.917 423.949 422.867 428.925 420.064C434.415 416.946 440.045 414.075 445.699 411.272C452.731 407.818 459.81 404.499 466.865 401.112C478.733 395.416 490.041 389.562 501.418 382.901C515.599 374.558 539.008 359.442 557.347 335.96C565.524 325.487 572.603 313.219 577.299 300.861C577.299 321.831 577.392 342.778 577.299 363.748C577.252 375.747 577.252 387.297 576.528 396.245C575.617 407.616 573.187 420.849 569.169 431.188C554.988 467.677 521.58 483.309 487.074 502.014C464.506 514.259 441.33 525.294 422.664 537.741C419.393 539.939 415.982 542.428 412.758 544.963C401.217 554.091 390.4 567.143 383.999 581.52Z" fill="url(#paint2_linear_1318_1234)"/>
<path fill-rule="evenodd" clip-rule="evenodd" d="M534.056 186.481C534.056 200.767 537.817 255.356 531.556 280.968C527.748 296.578 520.576 309.227 509.362 321.427C493.335 338.854 471.071 350.92 448.106 362.896C426.285 374.267 406.801 385.391 393.088 407.123V360.855C393.088 354.104 393.064 347.623 393.088 342.106C393.088 332.664 393.415 324.051 395.167 314.722C396.241 309.025 397.853 303.418 400.61 296.892C403.554 289.894 406.521 284.041 411.17 278.95C419.767 269.575 428.224 262.645 437.99 256.701C471.258 236.427 507.516 224.72 534.056 186.481Z" fill="url(#paint3_linear_1318_1234)"/>
<defs>
<linearGradient id="paint0_linear_1318_1234" x1="384" y1="427.128" x2="190.676" y2="427.128" gradientUnits="userSpaceOnUse">
<stop stop-color="#1E4646"/>
<stop offset="0.54902" stop-color="#1B813E"/>
<stop offset="0.870588" stop-color="#6BB538"/>
<stop offset="1" stop-color="#1B813E"/>
</linearGradient>
<linearGradient id="paint1_linear_1318_1234" x1="184.719" y1="400.529" x2="373.476" y2="217.883" gradientUnits="userSpaceOnUse">
<stop stop-color="#1E4646"/>
<stop offset="1" stop-color="#1B813E"/>
</linearGradient>
<linearGradient id="paint2_linear_1318_1234" x1="383.999" y1="441.19" x2="577.454" y2="441.19" gradientUnits="userSpaceOnUse">
<stop stop-color="#49AD3E"/>
<stop offset="0.129412" stop-color="#49AD3E"/>
<stop offset="0.34902" stop-color="#1B813E"/>
<stop offset="0.890196" stop-color="#2B452D"/>
<stop offset="1" stop-color="#1E4646"/>
</linearGradient>
<linearGradient id="paint3_linear_1318_1234" x1="535.177" y1="296.802" x2="391.709" y2="296.802" gradientUnits="userSpaceOnUse">
<stop stop-color="#1E4646"/>
<stop offset="0.109804" stop-color="#2B452D"/>
<stop offset="0.65098" stop-color="#1B813E"/>
<stop offset="0.870588" stop-color="#49AD3E"/>
<stop offset="1" stop-color="#49AD3E"/>
</linearGradient>
</defs>
</svg>
